<svg xmlns="http://www.w3.org/2000/svg" width="22" height="27" viewBox="0 0 22 27" fill="none"><g clip-path="url(#clip0_1085_18109)"><path d="M10.8981 8.91859C13.3612 8.91859 15.3578 6.92202 15.3578 4.45895C15.3578 1.99588 13.3612 0 10.8981 0C8.43505 0 6.43848 1.99657 6.43848 4.45965C6.43848 6.92272 8.43505 8.91859 10.8981 8.91859Z" fill="black"/><path d="M20.5264 15.9963C22.2493 14.2358 22.2185 11.4124 20.458 9.69027C18.6975 7.96745 15.874 7.99818 14.1519 9.75871L10.8997 13.0828L7.64682 9.75871C5.924 7.99818 3.10058 7.96745 1.34074 9.69027C-0.41979 11.4131 -0.450517 14.2365 1.2723 15.9963L10.9004 25.8347L20.5278 15.9963H20.5264Z" fill="black"/></g><defs><clipPath id="clip0_1085_18109"><rect width="22" height="27" fill="white"/></clipPath></defs></svg>