<svg xmlns="http://www.w3.org/2000/svg" xmlns:xlink="http://www.w3.org/1999/xlink" xmlns:xodm="http://www.corel.com/coreldraw/odm/2003" xml:space="preserve" width="96.142mm" height="44.1121mm" version="1.1" style="shape-rendering:geometricPrecision; text-rendering:geometricPrecision; image-rendering:optimizeQuality; fill-rule:evenodd; clip-rule:evenodd" viewBox="0 0 9643.65 4424.72">
 <defs>
  <style type="text/css">
   <![CDATA[
    .fil0 {fill:none}
    .fil1 {fill:#008DD2}
   ]]>
  </style>
 </defs>
 <g id="Layer_x0020_1">
  <metadata id="CorelCorpID_0Corel-Layer"/>
  <rect class="fil0" x="-0.01" y="-0.02" width="9643.64" height="4424.72"/>
 </g>
 <g id="Layer_x0020_1_0">
  <metadata id="CorelCorpID_1Corel-Layer"/>
  <path class="fil1" d="M1292.69 1299.93c-44.4,67.99 -113.35,170.19 -206.72,306.47 -7.89,-83.93 -60.24,-148.06 -156.83,-192.46 -76.11,-34.89 -162.49,-52.24 -259.01,-52.24 -171,0 -302.53,43.65 -394.31,130.64 50.6,39.54 138.53,88.77 263.63,147.34 133.08,63.36 218.61,108.44 256.59,135.45 114.1,77.52 199.6,143.39 256.61,197.29 85.63,83.78 144.97,172.57 178.27,265.98 6.4,19.14 24.53,96.63 54.57,232.92 0,308.98 -148.02,560.79 -444.25,755.66 183.72,-235.86 275.73,-437.26 275.73,-603.56 0,-107.75 -38.9,-209.11 -116.42,-304.05 -54.09,-66.65 -137.91,-139.52 -252.02,-218.67 -69.62,-49.2 -194.92,-104.68 -375.36,-166.45 -125.16,-41.17 -249.59,-81.61 -373.16,-121.16l0 -26.18c0,1.62 10.35,-17.28 31.01,-57.05 71.16,-145.74 185.65,-270.79 343.29,-375.34 157.63,-104.56 316.38,-156.83 476.36,-156.83 129.99,0 277.35,34.14 442,102.23zm2182.84 1726.78l55.77 -5.38c3.26,18.73 10.1,32.43 20.3,41.18 10.21,8.76 24.13,13.13 41.53,13.13 18.41,0 32.32,-3.92 41.63,-11.68 9.31,-7.73 14.03,-16.94 14.03,-27.37 0,-6.62 -1.92,-12.34 -5.84,-17.06 -3.93,-4.71 -10.88,-8.87 -20.65,-12.34 -6.73,-2.36 -21.99,-6.4 -45.77,-12.34 -30.63,-7.64 -52.19,-16.95 -64.64,-28.06 -17.4,-15.6 -26.05,-34.58 -26.05,-57.01 0,-14.46 4.15,-27.95 12.36,-40.51 8.2,-12.56 19.96,-22.1 35.34,-28.72 15.38,-6.5 33.89,-9.76 55.67,-9.76 35.56,0 62.38,7.73 80.34,23.33 17.95,15.61 27.38,36.47 28.28,62.4l-57.11 2.58c-2.46,-14.59 -7.74,-25.02 -15.82,-31.43 -8.08,-6.39 -20.19,-9.53 -36.25,-9.53 -16.6,0 -29.62,3.37 -39.05,10.21 -6.06,4.38 -9.09,10.31 -9.09,17.61 0,6.62 2.8,12.34 8.53,17.17 7.18,6.06 24.7,12.34 52.63,18.96 27.84,6.63 48.36,13.36 61.72,20.31 13.35,7.07 23.79,16.61 31.31,28.84 7.52,12.24 11.33,27.27 11.33,45.11 0,16.27 -4.49,31.53 -13.46,45.67 -9.1,14.14 -21.78,24.7 -38.27,31.54 -16.5,6.96 -37.14,10.43 -61.72,10.43 -35.79,0 -63.4,-8.31 -82.59,-24.91 -19.19,-16.49 -30.74,-40.62 -34.45,-72.38zm342.36 92.24l0 -235.43 -84.05 0 0 -47.9 225.21 0 0 47.9 -83.94 0 0 235.43 -57.22 0zm176.29 0l0 -283.33 57.22 0 0 283.33 -57.22 0zm292.97 -104.14l55.54 17.51c-8.53,30.97 -22.67,53.96 -42.42,68.9 -19.85,15.04 -44.87,22.56 -75.29,22.56 -37.58,0 -68.56,-12.91 -92.79,-38.61 -24.24,-25.69 -36.35,-60.82 -36.35,-105.37 0,-47.24 12.23,-83.83 36.57,-109.97 24.35,-26.03 56.33,-39.05 96.05,-39.05 34.68,0 62.84,10.21 84.49,30.74 12.91,12.01 22.56,29.4 28.96,52.18l-56.67 13.46c-3.35,-14.68 -10.31,-26.25 -20.98,-34.78 -10.65,-8.54 -23.56,-12.8 -38.71,-12.8 -20.98,0 -38.04,7.52 -51.18,22.67 -13.12,15.15 -19.62,39.5 -19.62,73.27 0,35.8 6.5,61.39 19.41,76.53 12.9,15.15 29.61,22.78 50.27,22.78 15.15,0 28.27,-4.82 39.27,-14.47 10.88,-9.65 18.74,-24.8 23.45,-45.57zm105.48 104.14l0 -283.33 57.11 0 0 125.78 115.69 -125.78 76.86 0 -106.71 110.3 112.53 173.03 -74.06 0 -77.87 -132.98 -46.46 47.35 0 85.62 -57.11 0zm285.13 0l0 -283.33 210.06 0 0 47.9 -152.84 0 0 62.84 142.18 0 0 47.7 -142.18 0 0 77.21 158.22 0 0 47.69 -215.45 0zm264.15 0l0 -283.33 120.52 0c30.19,0 52.18,2.58 65.98,7.62 13.68,5.05 24.69,14.13 32.98,27.15 8.21,13.01 12.36,27.95 12.36,44.67 0,21.2 -6.29,38.82 -18.75,52.62 -12.45,13.8 -31.2,22.56 -56.1,26.25 12.34,7.19 22.55,15.05 30.63,23.68 8.07,8.64 18.97,24.01 32.54,46.01l34.68 55.32 -68.45 0 -41.41 -61.61c-14.7,-22.1 -24.7,-36.01 -30.08,-41.74 -5.5,-5.73 -11.21,-9.65 -17.27,-11.79 -6.06,-2.13 -15.6,-3.13 -28.73,-3.13l-11.68 0 0 118.26 -57.22 0zm57.22 -163.49l42.31 0c27.49,0 44.66,-1.12 51.5,-3.49 6.85,-2.35 12.13,-6.27 16.06,-12 3.81,-5.73 5.72,-12.8 5.72,-21.33 0,-9.54 -2.58,-17.17 -7.63,-23.11 -5.05,-5.84 -12.23,-9.55 -21.54,-10.99 -4.6,-0.68 -18.52,-1.02 -41.76,-1.02l-44.66 0 0 71.94zm214 71.25l55.76 -5.38c3.26,18.73 10.11,32.43 20.31,41.18 10.21,8.76 24.12,13.13 41.53,13.13 18.41,0 32.32,-3.92 41.63,-11.68 9.31,-7.73 14.02,-16.94 14.02,-27.37 0,-6.62 -1.91,-12.34 -5.84,-17.06 -3.92,-4.71 -10.88,-8.87 -20.64,-12.34 -6.73,-2.36 -21.99,-6.4 -45.78,-12.34 -30.63,-7.64 -52.18,-16.95 -64.64,-28.06 -17.39,-15.6 -26.04,-34.58 -26.04,-57.01 0,-14.46 4.15,-27.95 12.36,-40.51 8.18,-12.56 19.96,-22.1 35.34,-28.72 15.37,-6.5 33.88,-9.76 55.66,-9.76 35.57,0 62.39,7.73 80.35,23.33 17.94,15.61 27.38,36.47 28.28,62.4l-57.11 2.58c-2.47,-14.59 -7.75,-25.02 -15.83,-31.43 -8.07,-6.39 -20.19,-9.53 -36.24,-9.53 -16.61,0 -29.63,3.37 -39.05,10.21 -6.06,4.38 -9.1,10.31 -9.1,17.61 0,6.62 2.81,12.34 8.54,17.17 7.18,6.06 24.7,12.34 52.63,18.96 27.82,6.63 48.36,13.36 61.72,20.31 13.35,7.07 23.79,16.61 31.3,28.84 7.52,12.24 11.33,27.27 11.33,45.11 0,16.27 -4.48,31.53 -13.46,45.67 -9.09,14.14 -21.78,24.7 -38.27,31.54 -16.49,6.96 -37.13,10.43 -61.72,10.43 -35.79,0 -63.4,-8.31 -82.58,-24.91 -19.19,-16.49 -30.75,-40.62 -34.45,-72.38zm639.25 57.69l-32.87 41.86c-16.05,-7.86 -31.54,-18.64 -46.34,-32.44 -11.57,10.33 -23.67,17.95 -36.58,22.79 -12.91,4.93 -28.17,7.39 -46.01,7.39 -35.35,0 -61.83,-9.87 -79.66,-29.73 -13.8,-15.37 -20.65,-32.99 -20.65,-52.97 0,-18.18 5.39,-34.56 16.27,-49.02 10.77,-14.48 26.93,-27.16 48.47,-37.82 -9.65,-11.45 -16.94,-22.34 -21.76,-32.78 -4.95,-10.44 -7.41,-20.2 -7.41,-29.51 0,-17.17 6.84,-31.64 20.64,-43.54 13.7,-11.89 33.22,-17.83 58.59,-17.83 24.57,0 43.64,6.28 57.44,18.75 13.81,12.45 20.66,27.71 20.66,45.78 0,11.44 -3.37,22.33 -10.22,32.65 -6.84,10.32 -20.64,22 -41.4,35.01l39.49 51.95c4.6,-8.18 8.64,-18.96 11.9,-32.2l49.15 11.21c-4.95,17.4 -9.21,30.08 -12.79,38.05 -3.6,8.07 -7.41,14.82 -11.57,20.31 6.07,5.73 13.91,11.9 23.56,18.63 9.54,6.74 16.61,11.21 21.09,13.47zm-147.89 -154.07l14.69 -11.22c10.89,-8.42 16.28,-16.72 16.28,-24.91 0,-6.96 -2.58,-12.91 -7.86,-17.85 -5.27,-4.81 -12.34,-7.28 -21.19,-7.28 -8.65,0 -15.38,2.13 -20.2,6.39 -4.94,4.38 -7.41,9.31 -7.41,15.04 0,6.73 4.15,14.82 12.34,24.35l13.36 15.49zm-21.2 58.91c-12.57,6.39 -21.88,13.91 -28.06,22.77 -6.17,8.88 -9.31,17.96 -9.31,27.27 0,11.8 3.81,21.33 11.57,28.73 7.62,7.4 17.83,11.1 30.74,11.1 8.52,0 16.71,-1.68 24.57,-5.05 7.85,-3.26 16.38,-8.87 25.7,-16.6l-55.21 -68.23zm314.41 129.72l0 -283.33 57.22 0 0 111.53 112.1 0 0 -111.53 57.23 0 0 283.33 -57.23 0 0 -123.88 -112.1 0 0 123.88 -57.22 0zm274.15 -139.93c0,-28.84 4.38,-53.07 13.01,-72.71 6.4,-14.48 15.28,-27.37 26.38,-38.83 11.1,-11.44 23.33,-19.97 36.57,-25.47 17.62,-7.52 38.04,-11.22 61.17,-11.22 41.74,0 75.18,12.91 100.2,38.82 25.03,25.93 37.59,61.95 37.59,108.07 0,45.66 -12.46,81.47 -37.25,107.27 -24.91,25.93 -58.25,38.84 -99.87,38.84 -42.08,0 -75.63,-12.91 -100.43,-38.61 -24.91,-25.69 -37.36,-61.05 -37.36,-106.15zm59.03 -1.92c0,32.1 7.39,56.45 22.22,72.94 14.81,16.49 33.66,24.81 56.43,24.81 22.78,0 41.53,-8.21 56.22,-24.7 14.58,-16.38 21.89,-40.96 21.89,-73.83 0,-32.44 -7.07,-56.68 -21.33,-72.72 -14.25,-16.05 -33.22,-24.01 -56.78,-24.01 -23.56,0 -42.52,8.07 -57,24.24 -14.47,16.27 -21.65,40.62 -21.65,73.26zm262 141.84l0 -281.09 57.23 0 0 233.4 142.28 0 0 47.69 -199.52 0zm228.7 -139.93c0,-28.84 4.37,-53.07 13.01,-72.71 6.4,-14.48 15.27,-27.37 26.38,-38.83 11.1,-11.44 23.33,-19.97 36.57,-25.47 17.62,-7.52 38.04,-11.22 61.16,-11.22 41.75,0 75.18,12.91 100.21,38.82 25.02,25.93 37.58,61.95 37.58,108.07 0,45.66 -12.45,81.47 -37.24,107.27 -24.92,25.93 -58.25,38.84 -99.87,38.84 -42.08,0 -75.63,-12.91 -100.43,-38.61 -24.92,-25.69 -37.36,-61.05 -37.36,-106.15zm59.02 -1.92c0,32.1 7.4,56.45 22.22,72.94 14.81,16.49 33.66,24.81 56.43,24.81 22.79,0 41.53,-8.21 56.22,-24.7 14.59,-16.38 21.9,-40.96 21.9,-73.83 0,-32.44 -7.07,-56.68 -21.33,-72.72 -14.25,-16.05 -33.22,-24.01 -56.79,-24.01 -23.56,0 -42.52,8.07 -56.99,24.24 -14.48,16.27 -21.66,40.62 -21.66,73.26zm392.29 37.71l0 -47.8 123.33 0 0 112.88c-12.01,11.57 -29.29,21.77 -52.07,30.63 -22.77,8.87 -45.78,13.25 -69.12,13.25 -29.62,0 -55.44,-6.18 -77.43,-18.64 -22.11,-12.45 -38.6,-30.19 -49.7,-53.41 -11.11,-23.11 -16.62,-48.25 -16.62,-75.4 0,-29.52 6.18,-55.77 18.63,-78.78 12.35,-22.88 30.41,-40.51 54.2,-52.74 18.19,-9.31 40.85,-14.02 67.9,-14.02 35.13,0 62.61,7.41 82.47,22.11 19.76,14.7 32.44,35.12 38.16,61.15l-56.89 10.67c-3.93,-13.91 -11.43,-24.92 -22.45,-33 -11.1,-8.07 -24.8,-12.12 -41.29,-12.12 -25.02,0 -44.89,7.96 -59.59,23.79 -14.81,15.83 -22.22,39.39 -22.22,70.59 0,33.66 7.52,58.91 22.45,75.63 14.93,16.83 34.57,25.25 58.8,25.25 12.01,0 24.01,-2.37 36.03,-7.07 12,-4.6 22.33,-10.32 30.95,-17.05l0 -35.92 -65.53 0zm176.29 104.14l0 -283.33 120.52 0c30.19,0 52.18,2.58 65.98,7.62 13.68,5.05 24.69,14.13 32.98,27.15 8.21,13.01 12.36,27.95 12.36,44.67 0,21.2 -6.29,38.82 -18.75,52.62 -12.45,13.8 -31.2,22.56 -56.1,26.25 12.34,7.19 22.55,15.05 30.63,23.68 8.07,8.64 18.97,24.01 32.54,46.01l34.68 55.32 -68.45 0 -41.41 -61.61c-14.7,-22.1 -24.7,-36.01 -30.08,-41.74 -5.5,-5.73 -11.21,-9.65 -17.27,-11.79 -6.06,-2.13 -15.6,-3.13 -28.73,-3.13l-11.68 0 0 118.26 -57.22 0zm57.22 -163.49l42.31 0c27.49,0 44.66,-1.12 51.5,-3.49 6.85,-2.35 12.13,-6.27 16.06,-12 3.81,-5.73 5.72,-12.8 5.72,-21.33 0,-9.54 -2.58,-17.17 -7.63,-23.11 -5.05,-5.84 -12.23,-9.55 -21.54,-10.99 -4.6,-0.68 -18.52,-1.02 -41.76,-1.02l-44.66 0 0 71.94zm484.1 163.49l-62.29 0 -24.68 -64.41 -113.34 0 -23.34 64.41 -60.71 0 110.42 -283.33 60.48 0 113.45 283.33zm-105.37 -112.1l-39.05 -105.14 -38.27 105.14 77.32 0zm134.99 112.1l0 -283.33 85.62 0 51.4 193.21 50.84 -193.21 85.83 0 0 283.33 -53.19 0 0 -223.08 -56.2 223.08 -55.11 0 -56.1 -223.08 0 223.08 -53.08 0zm315.99 -92.24l55.76 -5.38c3.26,18.73 10.1,32.43 20.31,41.18 10.21,8.76 24.12,13.13 41.53,13.13 18.4,0 32.32,-3.92 41.63,-11.68 9.31,-7.73 14.02,-16.94 14.02,-27.37 0,-6.62 -1.92,-12.34 -5.84,-17.06 -3.92,-4.71 -10.88,-8.87 -20.64,-12.34 -6.73,-2.36 -21.99,-6.4 -45.78,-12.34 -30.63,-7.64 -52.18,-16.95 -64.64,-28.06 -17.39,-15.6 -26.04,-34.58 -26.04,-57.01 0,-14.46 4.15,-27.95 12.36,-40.51 8.18,-12.56 19.96,-22.1 35.34,-28.72 15.37,-6.5 33.88,-9.76 55.66,-9.76 35.57,0 62.39,7.73 80.34,23.33 17.95,15.61 27.39,36.47 28.29,62.4l-57.11 2.58c-2.47,-14.59 -7.75,-25.02 -15.83,-31.43 -8.07,-6.39 -20.19,-9.53 -36.24,-9.53 -16.61,0 -29.63,3.37 -39.05,10.21 -6.07,4.38 -9.1,10.31 -9.1,17.61 0,6.62 2.81,12.34 8.53,17.17 7.19,6.06 24.7,12.34 52.64,18.96 27.82,6.63 48.36,13.36 61.72,20.31 13.35,7.07 23.78,16.61 31.3,28.84 7.52,12.24 11.33,27.27 11.33,45.11 0,16.27 -4.49,31.53 -13.46,45.67 -9.1,14.14 -21.78,24.7 -38.27,31.54 -16.49,6.96 -37.13,10.43 -61.72,10.43 -35.79,0 -63.4,-8.31 -82.59,-24.91 -19.18,-16.49 -30.74,-40.62 -34.44,-72.38zm862.96 -990.68c0,-9.95 -1.89,-16.98 -5.59,-20.99 -3.32,-3.59 -9.19,-5.44 -17.47,-5.44 -20.88,0 -46.06,11.13 -75.48,33.38 -31.47,23.78 -66.94,59.7 -106.29,107.67 -39.38,47.9 -68.91,91.16 -88.55,129.72 -18.92,37.13 -28.37,69.44 -28.37,96.82 0,14.31 2.48,24.43 7.37,30.35 4.1,4.97 11.02,7.44 20.69,7.44 17.11,0 42.9,-17.35 77.26,-52.09 36.91,-37.24 81.63,-93.35 134.11,-168.29 27.79,-40.22 48.77,-74.1 62.76,-101.61 13,-25.58 19.56,-44.57 19.56,-56.95zm426.59 -431.21c-99.18,157.44 -181.1,288.24 -245.73,392.28 -67.17,108.09 -114.49,185.42 -142.08,231.94 -26.75,45.83 -46.75,82.99 -59.92,111.4 -12.47,26.87 -18.71,45.11 -18.71,54.64 0,8.03 1.29,13.48 3.87,16.34 2.14,2.37 6.33,3.56 12.53,3.56 20.2,0 49.78,-19.97 88.63,-59.83 41.63,-42.71 91.84,-106.84 150.59,-192.32 2.48,-3.93 5.04,-7.13 7.62,-9.45 4.79,-4.17 9.97,-6.37 15.71,-6.37 6.1,0 11.23,2.04 15.27,5.88l0.14 0.14c4.22,4.1 6.4,9.39 6.4,15.62l0 2.03 -0.66 2.43c-0.73,2.67 -2.27,5.71 -4.46,9.22 -12.92,19.88 -27.55,38.75 -41.53,57.92 -52.02,72 -97.68,126.32 -136.73,162.88 -41.5,38.87 -76.78,58.34 -105.68,58.34 -14.91,0 -28.71,-2.95 -41.27,-8.71 -12.64,-5.79 -23.81,-14.4 -33.34,-25.67 -9.34,-11.05 -16.33,-23.73 -20.95,-37.87 -4.55,-13.9 -6.8,-29.11 -6.8,-45.53 0,-4.15 0.17,-8.38 0.51,-12.68 -24.3,30.32 -46.69,55.25 -67.17,74.8 -38.86,37.11 -72.17,55.65 -99.84,55.65 -17.13,0 -33.05,-3.76 -47.73,-11.26 -14.39,-7.36 -27.32,-18.22 -38.75,-32.57 -11.13,-14.1 -19.48,-30 -25,-47.64 -5.44,-17.3 -8.15,-36.25 -8.15,-56.74l0 -0.47 -21.69 26.06c-33.25,39.62 -63.19,69.62 -89.86,89.91 -28.59,21.8 -54.08,32.71 -76.51,32.71 -14.79,0 -28.54,-2.95 -41.2,-8.83 -12.53,-5.81 -23.77,-14.48 -33.71,-25.99 -9.68,-11.16 -17,-23.7 -21.89,-37.44 -4.81,-13.54 -7.25,-28.21 -7.25,-43.9 0,-13.35 1.43,-26.52 4.28,-39.4 2.82,-12.74 7.01,-24.94 12.59,-36.42 5.21,-10.99 14.66,-27.26 28.31,-48.8 12.99,-20.57 30.4,-46.76 52.12,-78.57 21.78,-32.34 38.05,-58.62 48.71,-78.82 9.7,-18.36 14.56,-30.72 14.56,-37.09 0,-6.35 -1.16,-10.66 -3.48,-12.88 -2.57,-2.45 -7.48,-3.7 -14.69,-3.7 -34.56,0 -80.85,34.98 -138.85,104.92 -60.78,73.27 -132.47,183.6 -215.11,330.94l-5.38 9.56 -41.87 -3.37c-7.93,-0.54 -13.28,-0.81 -16.09,-0.81 -9.5,0 -18.45,0.24 -26.71,0.73 -8.68,0.53 -17.04,1.33 -25,2.39l-36 4.83 147.23 -233.33c36.06,-57.45 63.12,-104.09 81.09,-139.82 16.98,-33.72 25.48,-56.51 25.48,-68.29 0,-4.21 -0.39,-6.79 -1.12,-7.75l-2.41 0c-9.07,0 -25.65,12.92 -49.7,38.7 -26.8,28.75 -60.5,72.26 -101.07,130.46l-0.2 0.19c-3.11,4.32 -5.93,7.74 -8.44,10.24l-1.96 1.81c-5.57,9.77 -13.86,21.97 -24.87,36.6 -20.34,27.03 -50.42,64.09 -90.29,111.16 -32.9,39.69 -62.68,69.7 -89.11,89.92 -28.52,21.83 -54,32.77 -76.26,32.77 -15.04,0 -28.84,-2.94 -41.4,-8.74 -12.49,-5.76 -23.55,-14.31 -33.13,-25.57 -9.42,-11.07 -16.43,-23.63 -21.08,-37.61 -4.57,-13.72 -6.83,-28.58 -6.83,-44.53l0.26 -9.14 -15.85 19.94c-21.58,26.61 -39.94,46.87 -54.96,60.69 -15.65,14.51 -31.31,25.58 -46.97,33.08 -12.67,6.09 -25.29,9.85 -37.8,11.24l-10.57 7.69c-28.66,19.52 -63.49,34.08 -104.44,43.67 -40.25,9.43 -86.52,14.13 -138.83,14.13 -37.75,0 -75.26,-1.81 -112.41,-5.45 -36.62,-3.58 -72.53,-8.97 -107.62,-16.16 -35.3,-7.27 -79.49,-18.46 -132.5,-33.45 -51.19,-14.49 -111.91,-32.94 -182.04,-55.27 -44.43,8.74 -89.96,15.33 -136.52,19.8 -47.97,4.62 -96.24,6.92 -144.79,6.92 -87.25,0 -153.29,-6.87 -197.95,-20.53 -51.04,-15.61 -76.6,-40.74 -76.6,-75.3 0,-32.4 20.13,-56.15 60.34,-71.22 34.84,-13.03 86.06,-19.58 153.59,-19.58 51.61,0 115.87,6.68 192.73,19.97 74.66,12.92 161.75,32.26 261.18,57.93 27.22,-10.98 52.94,-24.35 77.14,-40.09 25.73,-16.74 49.89,-36.28 72.41,-58.6 22.82,-22.52 48.66,-52.66 77.59,-90.38 10.05,-13.09 20.45,-27.09 31.24,-42 -50.87,37.02 -100.73,66.94 -149.58,89.75 -78.44,36.63 -154.27,54.99 -227.41,54.99 -50.04,0 -95.22,-7.52 -135.45,-22.44 -40.7,-15.13 -76.3,-37.81 -106.7,-67.93 -30.22,-30.24 -52.89,-65.65 -68.03,-106.33 -15.01,-40.38 -22.55,-85.73 -22.55,-136.03 0,-76.7 18.14,-151.38 54.41,-224.03 35.94,-71.99 89.74,-141.96 161.35,-209.89 71.48,-67.74 145.18,-118.62 221.07,-152.62 76.42,-34.24 154.89,-51.37 235.28,-51.37 37.84,0 72.12,4.95 102.74,14.81 31.03,10.02 58.14,25.08 81.2,45.13 23.34,20.35 40.96,44.34 52.69,71.88 11.65,27.31 17.51,57.96 17.51,91.84 0,58.51 -13.65,117.85 -40.95,178 -26.98,59.49 -67.3,119.75 -120.9,180.73 -53.75,61.32 -106.71,107.4 -158.91,138.23 -53.39,31.53 -106.09,47.28 -158.18,47.28 -22.58,0 -43.76,-3.68 -63.35,-11.03 -19.66,-7.35 -37.48,-18.36 -53.32,-32.93 -16,-14.58 -28.1,-31.06 -36.19,-49.23 -8.22,-18.42 -12.33,-38.42 -12.33,-59.75 0,-16.74 2.61,-32.45 7.82,-47.08 5.25,-14.72 13.1,-28.31 23.56,-40.66 10.77,-12.57 22.55,-22.09 35.45,-28.55 13.3,-6.65 27.48,-10 42.62,-10 21.58,0 38.31,5.88 50.14,17.49 11.93,11.72 17.91,28.33 17.91,49.69 0,11.1 -2.03,21.72 -6.09,31.78 -3.96,9.8 -9.99,19.06 -18.06,27.67 -8.01,8.62 -16.75,15.09 -26.14,19.5 -9.74,4.57 -19.92,6.85 -30.5,6.85 -18.02,0 -31.87,-4.65 -41.57,-13.91l-3.38 -3.71c0.91,11.21 3.52,21.61 7.81,31.12 5.47,12.14 13.73,23.14 24.82,32.88 11.39,10.01 24.23,17.58 38.41,22.63 14.29,5.08 30.16,7.64 47.58,7.64 41.93,0 85.6,-13.9 130.91,-41.7 46.51,-28.52 94.68,-71.6 144.46,-129.19 49.89,-57.66 87.23,-113.53 111.97,-167.52 24.39,-53.21 36.59,-104.78 36.59,-154.63 0,-25.92 -4.33,-49.33 -13.07,-70.27 -8.68,-20.81 -21.81,-39.47 -39.41,-55.99 -17.57,-16.76 -37.62,-29.28 -60.04,-37.59 -22.63,-8.4 -48.06,-12.62 -76.11,-12.62 -69.79,0 -138.08,17.49 -204.84,52.34 -67.65,35.34 -133.95,88.51 -198.85,159.42 -64.94,71.03 -113.7,143.46 -146.16,217.25 -32.2,73.2 -48.33,147.82 -48.33,223.8 0,34.74 5.5,65.62 16.48,92.55 10.83,26.58 27.04,49.49 48.61,68.64 21.84,19.52 47.84,34.15 78,43.92 30.7,9.96 65.94,14.94 105.59,14.94 34.23,0 68.34,-4.22 102.24,-12.61 34.16,-8.47 68.35,-21.18 102.42,-38.13 34.32,-17.16 72.96,-40.83 115.89,-71.08 42.08,-29.65 88.08,-65.54 137.95,-107.7 42.88,-71.77 79.46,-131.93 109.73,-180.4 31.4,-50.3 56.81,-89.4 76.22,-117.29 18.86,-27.14 39.64,-54.47 62.29,-81.97 22.72,-27.57 47.19,-55.14 73.3,-82.71 51.25,-53.83 96.71,-94.33 136.3,-121.44 41.62,-28.52 77.61,-42.75 107.89,-42.75 15.45,0 27.56,3.88 36.37,11.6 9.5,8.32 14.2,19.93 14.2,34.76 0,22.7 -12.86,54.31 -38.65,94.71 -24.3,38.05 -60.46,84.91 -108.53,140.38 -47.79,55.39 -95.03,105.23 -141.57,149.54 -45.97,43.77 -91.36,82.24 -136.04,115.44 -34,73.98 -68.48,138.14 -103.46,192.4 -35.99,55.83 -72.66,101.5 -110.03,136.87 -37.41,35.47 -81.49,66.24 -132.09,92.17 -33.95,17.39 -70.76,32.62 -110.37,45.6 82.88,22.05 150.17,39.81 201.59,53.16 63.93,16.62 107.08,27.42 129.37,32.32 21.03,4.63 41.54,8.12 61.38,10.41 19.7,2.27 39.17,3.43 58.34,3.43 25.52,0 49.72,-4.42 72.63,-13.28 -9.17,-6.52 -17.64,-14.68 -25.44,-24.46 -11.16,-14.17 -19.55,-30.05 -25.06,-47.62 -5.44,-17.28 -8.17,-36.24 -8.17,-56.76 0,-56.41 19.81,-109.42 59.32,-159.02 38.45,-48.26 95.77,-93.19 171.79,-134.75 33.43,-18.55 63.65,-32.46 90.62,-41.71 28.12,-9.64 53.12,-14.44 74.95,-14.44 21.43,0 38.15,5.67 50,17.05 4.88,4.67 8.79,10.17 11.7,16.49l15.55 -29.64 12.82 3.05c7.87,1.86 15,3.22 21.29,4.04 6.27,0.83 12.41,1.25 18.28,1.25 7.22,0 15.12,-0.44 23.69,-1.3 8.98,-0.89 19.26,-2.3 30.83,-4.19l36.29 -5.98 -163.9 271.65c-24.78,41.23 -43.36,75.57 -55.76,102.83 -11.65,25.64 -17.48,43.98 -17.48,54.9 0,8.76 1.38,14.78 4.09,18.05 1.89,2.3 5.55,3.46 10.87,3.46 7.35,0 18.32,-5.2 32.85,-15.58 16.61,-11.87 36.58,-29.93 59.88,-54.17 23.72,-24.65 47.77,-52.29 72.04,-82.89 24.02,-30.27 48.31,-63.55 72.82,-99.83 2.45,-3.73 5.02,-6.85 7.72,-9.2 1.86,-1.63 3.78,-2.96 5.8,-3.96l8.21 -10.96c42.17,-56.62 77.69,-99.29 106.54,-127.99 31.54,-31.4 56.91,-47.07 76.03,-47.07 12.05,0 23.35,2.78 33.87,8.39 10.15,5.41 19.26,13.36 27.25,23.85 7.67,9.87 13.44,20.82 17.25,32.73 3.85,12 5.75,24.8 5.75,38.28 0,5.39 -0.41,11.03 -1.24,16.93 23.31,-28.37 43.31,-50.48 60.01,-66.25 18.46,-17.41 36.55,-30.66 54.12,-39.63 18.59,-9.51 36.63,-14.29 53.91,-14.29 14.56,0 28.15,3.04 40.59,9.08 12.26,5.95 23.29,14.78 33.02,26.49 9.64,11.59 16.88,24.47 21.66,38.56 4.76,14.01 7.14,29.17 7.14,45.36 0,20.71 -6.8,46.17 -20.43,76.43 -12.93,28.69 -32.32,62.36 -58.17,101 -25.1,37.89 -44,68.97 -56.62,93.19 -11.51,22.13 -17.31,37.19 -17.31,45.05 0,6.52 1.12,10.93 3.35,13.18 2.2,2.2 6.58,3.32 13.13,3.32 19.6,0 48.74,-19.95 87.35,-59.83 33.83,-34.91 73.6,-84.34 119.29,-148.22 5.52,-10.88 11.91,-21.62 19.18,-32.22 29.36,-42.76 73.05,-83.1 131.02,-120.98 45.39,-29.82 86.01,-52.21 121.75,-67.15 37.12,-15.51 69.54,-23.26 97.16,-23.26 21.43,0 38.11,5.77 49.9,17.21 6.3,6.12 10.95,13.57 13.94,22.37l258.09 -432.37 12.73 4.01c8.25,2.6 16.31,4.5 24.08,5.72 7.82,1.21 15.9,1.84 24.07,1.84l16.16 -0.83 67.25 -5.04 -17.99 28.6zm-1659.87 428.19c0,-9.08 -1.6,-15.38 -4.77,-18.87 -2.74,-3.02 -7.77,-4.54 -15.05,-4.54 -21.35,0 -47.02,11.25 -76.98,33.59 -32.04,23.93 -68.06,59.88 -107.99,107.76 -40.14,48.46 -70.12,91.94 -89.89,130.45 -19.11,37.24 -28.67,69.74 -28.67,97.47 0,13.47 2.51,22.99 7.49,28.55 2.12,2.35 4.93,4.16 8.42,5.43 6.05,-4.56 12.03,-9.47 17.9,-14.73l1.86 -1.69 5.19 -2.42c5.49,-2.63 8.87,-4.19 13.52,-4.19l3.6 0 3.39 1.53c2.55,1.17 4.86,2.61 6.8,4.19l0.98 0.78c8.15,-6.27 17.13,-14.1 26.96,-23.53 31.98,-30.65 70.91,-76.89 116.75,-138.66 37.34,-50.56 65.4,-93.22 84.06,-127.83 17.59,-32.65 26.43,-57.11 26.43,-73.28zm-1178.5 351.5c-64.74,-19.45 -120.91,-34.71 -168.5,-45.76 -64.08,-14.9 -112.79,-22.31 -146.14,-22.31 -33.41,0 -57.97,3.48 -73.64,10.41 -11.1,4.92 -16.68,11.6 -16.68,20.02 0,12.52 16.66,23.03 49.97,31.47 40.5,10.25 102.03,15.37 184.54,15.37 44.99,0 87.9,-1.69 128.62,-5.06 14.23,-1.18 28.17,-2.56 41.83,-4.14zm1128.44 -995.58c0,-1.03 1.36,-0.34 0.82,-0.81l-3.46 -0.02c-16.57,0 -37.23,9.19 -61.96,27.55 -26.63,19.81 -57.13,49.85 -91.48,90.15 -30.97,36.2 -63.67,83.77 -98.12,142.61 -24.13,41.24 -49.15,87.98 -75.01,140.23 25.45,-22.57 50.58,-46.06 75.42,-70.48 44.35,-43.6 87.71,-90.14 130.06,-139.58 42.24,-49.45 73.75,-90.47 94.56,-123.1 19.45,-30.53 29.17,-52.69 29.17,-66.55zm-1837.99 779.71c0,9.62 -11.09,29.17 -33.21,58.75 -19.9,26.69 -49.84,63.82 -89.7,111.43 -33.6,39.82 -63.54,69.83 -89.96,89.93 -28.59,21.77 -54.06,32.69 -76.49,32.69 -14.84,0 -28.55,-2.94 -41.18,-8.81 -12.46,-5.83 -23.71,-14.47 -33.71,-25.94 -9.77,-11.13 -17.09,-23.61 -21.93,-37.29 -4.83,-13.6 -7.24,-28.36 -7.24,-44.12 0,-13.35 1.42,-26.51 4.27,-39.38 2.79,-12.72 6.99,-24.93 12.55,-36.44 5.3,-11.18 14.81,-27.46 28.4,-48.87 12.54,-19.77 30,-46.04 52.02,-78.48 21.79,-32.37 38.07,-58.65 48.74,-78.84 9.7,-18.35 14.55,-30.71 14.55,-37.09 0,-6.36 -1.18,-10.7 -3.53,-12.94 -2.51,-2.41 -7.4,-3.64 -14.68,-3.64 -34.57,0 -80.86,34.98 -138.86,104.92 -60.78,73.27 -132.46,183.58 -215.1,330.94l-5.36 9.57 -41.78 -3.38c-7.97,-0.54 -13.32,-0.81 -16.08,-0.81 -9.57,0 -18.55,0.24 -26.79,0.73 -8.8,0.54 -17.17,1.33 -25.12,2.39l-35.89 4.79 147.19 -233.29c36.1,-57.45 63.07,-103.96 80.91,-139.45 17.03,-33.91 25.54,-56.81 25.54,-68.66 0,-4.27 -0.37,-6.93 -1.11,-7.88l-2.2 0.13c-9.08,0 -25.66,12.91 -49.71,38.68 -26.81,28.73 -60.54,72.27 -101.07,130.48l-0.13 0.19c-2.96,4.14 -5.86,7.56 -8.52,10.16 -1.45,1.41 -2.86,2.61 -4.28,3.62 -11.75,15.23 -29.17,40.16 -41.49,52.48 -57.56,71.09 -111.27,124.6 -161.06,160.49 -51.55,37.15 -99.37,55.75 -143.4,55.75 -21.36,0 -41.25,-3.93 -59.52,-11.81 -18.16,-7.81 -34.61,-19.51 -49.2,-35.09 -14.5,-15.45 -25.41,-32.87 -32.67,-52.22 -7.22,-19.33 -10.85,-40.31 -10.85,-62.91l0.02 -3.23c-41.44,46.25 -80.7,82.76 -117.77,109.49 -51.54,37.15 -99.31,55.76 -143.28,55.76 -21.42,0 -41.28,-3.93 -59.52,-11.78 -18.17,-7.81 -34.61,-19.53 -49.24,-35.12 -14.52,-15.44 -25.45,-32.88 -32.7,-52.21 -7.24,-19.26 -10.87,-40.25 -10.87,-62.92 0,-6.19 0.25,-12.33 0.75,-18.43 -7.03,5.35 -14.02,10.06 -20.96,14.12 -22.25,13.05 -44.02,19.6 -65.28,19.6 -25.99,0 -45.86,-7.98 -59.62,-23.95 -13.14,-15.27 -19.71,-37.03 -19.71,-65.28 0,-3.15 0.12,-6.48 0.39,-9.95l-8.02 8.36c-13.59,14.45 -25.53,28.69 -35.73,42.71 -10.91,15.1 -25.87,37.81 -44.64,68.06 -18.08,29.14 -40.23,66.13 -66.37,111l-5.4 9.27 -44.73 -3.36 -15.3 -0.73 -16.53 0.97 -65.45 4.76 152.04 -246.35c33.45,-54.5 58.43,-98.33 74.86,-131.5 15.59,-31.47 23.39,-52.54 23.39,-63.19 0,-3.68 -0.28,-5.86 -0.79,-6.5 -0.3,-0.38 0.02,0.57 -0.87,0.57 -10.52,0 -27.99,12.95 -52.39,38.77 -27.19,28.78 -60.68,72.23 -100.5,130.25 -2.28,3.47 -4.53,6.43 -6.76,8.84 -5.49,8.46 -13.66,19.15 -24.53,32.1 -18.9,22.56 -47.97,55.42 -87.07,98.53l-0.06 0.13c-43.11,46.94 -83.23,82.32 -120.3,106.06 -38.67,24.77 -74.42,37.17 -107.23,37.17 -21.52,0 -41.65,-4.19 -60.3,-12.56 -18.52,-8.31 -35.36,-20.67 -50.45,-37.03 -15.09,-16.06 -26.52,-33.82 -34.15,-53.21 -7.63,-19.4 -11.5,-40.32 -11.5,-62.63 0,-25.05 5.03,-50.53 15.15,-76.41 9.83,-25.18 24.51,-50.7 44.03,-76.47 19.4,-25.75 42.11,-49.59 68.02,-71.49 25.75,-21.79 54.87,-41.85 87.18,-60.18 27.4,-15.75 52.42,-27.65 74.98,-35.66 23.43,-8.3 44.41,-12.48 62.95,-12.48 25.52,0 45.04,8.05 58.55,24.13 12.79,15.22 19.18,36.89 19.18,65 0,20.53 -3.48,41.22 -10.43,61.92 -6.81,20.28 -16.98,40.53 -30.49,60.69 -13.78,20.49 -27.77,36 -42,46.57 -15.67,11.67 -31.65,17.46 -47.97,17.46 -16.94,0 -30.16,-4.74 -39.63,-14.19 -9.51,-9.5 -14.28,-22.73 -14.28,-39.66 0,-18.84 7.84,-36.62 23.48,-53.31 13.97,-14.94 34.43,-29.05 61.21,-42.23 17.15,-8.36 29.74,-17.8 37.83,-28.3 7.28,-9.44 10.9,-20.05 10.9,-31.79 0,-7.45 -1.52,-12.59 -4.5,-15.34 -3.36,-3.11 -9.53,-4.67 -18.42,-4.67 -18.67,0 -40.44,10.06 -65.23,30.07 -26.74,21.62 -56.28,54.37 -88.48,98.17 -32.24,44.11 -56.39,84.58 -72.41,121.33 -15.52,35.61 -23.28,67.57 -23.28,95.87 0,21.18 4.46,36.57 13.38,46.08 8.65,9.21 22.59,13.85 41.77,13.85 33.64,0 74.52,-19.98 122.45,-59.83 50.14,-41.67 107.11,-104.49 170.75,-188.32l0.34 -0.46c2.79,-3.45 5.44,-6.39 7.87,-8.81l13.47 -19.2c42.71,-56.87 78.65,-99.59 107.78,-128.13 31.93,-31.29 57.74,-46.91 77.41,-46.91 55.02,0 82.65,33.85 82.65,101.56 0,20.99 -5.02,44.84 -14.97,71.51 9.88,-22.02 20.78,-42.46 32.69,-61.21 13.32,-20.98 28.09,-40.11 44.31,-57.21 16.47,-17.54 32.34,-30.88 47.57,-39.9 16.53,-9.81 32.52,-14.75 47.97,-14.75 12.69,0 22.76,3.2 30.19,9.67 8.15,7.08 12.22,16.86 12.22,29.41 0,17.89 -11.21,37.92 -33.59,60.01 -19.8,19.58 -49.19,41.86 -88.05,66.81 -9.47,3.55 -41.38,25.56 -53.41,32.98l-5.02 4.18c-3,10.3 -5.27,19.58 -6.76,27.79 -1.69,9.18 -2.54,17.49 -2.54,24.92 0,19.15 3.14,32.99 9.45,41.42 5.17,6.92 13.52,10.4 25.06,10.4 17.56,0 36.43,-7.66 56.54,-22.98 18.07,-13.76 36.91,-33.45 56.49,-59.04 7.3,-13.21 15.97,-26.17 26.03,-38.87 35.74,-45.17 88.89,-87.03 159.4,-125.46 36.98,-20.19 70.67,-35.37 100.96,-45.52 31.29,-10.49 59.14,-15.73 83.52,-15.73 23.76,0 44.13,7.25 61.28,21.7 8.79,7.33 15.53,15.67 20.13,25.01 4.71,9.58 7.12,19.94 7.12,31.03 0,23.38 -7.65,45 -22.81,64.79 -14.3,18.7 -35.4,35.59 -63.1,50.62l-0.14 0.06c-26.94,14.34 -62.29,28.08 -106.09,41.22 -41.82,12.54 -91.52,24.68 -149.14,36.38 -15.91,24.78 -28,47.6 -36.25,68.5 -8.47,21.45 -12.7,40.51 -12.7,57.24 0,18.61 4.52,32.12 13.54,40.47 9.41,8.7 24.64,13.07 45.67,13.07 39.25,0 83.79,-19.9 133.51,-59.63 46.01,-36.74 95.95,-90.07 149.77,-159.89 7.85,-14.95 17.44,-29.58 28.78,-43.89 35.76,-45.16 88.97,-87.01 159.59,-125.43 36.88,-20.19 70.5,-35.38 100.78,-45.52 31.24,-10.49 59.11,-15.73 83.53,-15.73 23.51,0 43.96,7.25 61.29,21.7l0.14 0.06c8.77,7.39 15.45,15.74 19.95,25.01 4.61,9.58 6.95,19.89 6.95,30.97 0,23.4 -7.6,45.04 -22.78,64.86 -14.31,18.7 -35.39,35.61 -63.14,50.61 -26.92,14.32 -62.24,28.08 -106.04,41.22 -41.83,12.55 -91.52,24.67 -149.11,36.38 -16.02,24.87 -28.17,47.68 -36.39,68.5 -8.48,21.45 -12.72,40.51 -12.72,57.24 0,18.6 4.53,32.11 13.55,40.46 9.47,8.71 24.66,13.08 45.59,13.08 39.29,0 83.84,-19.91 133.61,-59.66 51.76,-41.35 108.52,-103.64 170.16,-186.78 4.13,-5.55 8.18,-9.88 12.02,-12.92l3.7 -2.62 9.91 -13.13c42.26,-56.72 77.75,-99.38 106.4,-127.92 31.53,-31.39 56.88,-47.06 76.07,-47.06 12.02,0 23.41,2.81 33.99,8.47 10.08,5.4 19.21,13.33 27.17,23.77 7.73,9.88 13.53,20.81 17.38,32.72 3.87,11.98 5.8,24.8 5.8,38.29 0,5.29 -0.4,10.79 -1.2,16.57 23.18,-28.2 43.11,-50.19 59.79,-65.89 18.48,-17.44 36.53,-30.69 54.07,-39.67 18.52,-9.48 36.48,-14.25 53.78,-14.25 14.6,0 28.24,3.04 40.78,9.1 12.28,5.93 23.34,14.76 33.06,26.47 9.65,11.59 16.8,24.53 21.53,38.73 4.66,14.07 6.95,29.15 6.95,45.19 0,20.67 -6.78,46.11 -20.36,76.36 -13,28.95 -32.32,62.64 -57.94,101.09 -25.44,38.22 -44.44,69.31 -56.89,93.17 -11.52,22.06 -17.3,37.1 -17.3,45.05 0,6.48 1.14,10.86 3.37,13.09 2.28,2.27 6.71,3.41 13.25,3.41 19.57,0 48.7,-19.95 87.33,-59.83 41.19,-42.51 91.22,-106.5 150.05,-191.88 2.09,-3.76 4.38,-6.9 6.9,-9.36 4.64,-4.51 9.95,-6.9 15.97,-6.9 5.96,0 11.16,1.96 15.26,5.85 4.33,4.05 6.64,9.43 6.64,15.79zm-760.04 -151.29c0,-3.9 -0.54,-6.34 -1.58,-7.29 -1.54,-1.37 -4.9,-2.06 -10.06,-2.06 -11.77,0 -25.94,4.38 -42.46,13.06 -17.93,9.44 -38.29,23.8 -60.99,43.02 -22.92,19.6 -45.74,42.16 -68.39,67.65 -12.64,14.22 -25.21,29.31 -37.68,45.25 20.47,-6.6 39.94,-13.85 58.4,-21.75 32.29,-13.81 61.72,-29.73 88.25,-47.64 25.74,-17.42 44.98,-34.17 57.62,-50.22 11.23,-14.27 16.89,-27.6 16.89,-40.02zm-413.49 0c0,-3.89 -0.54,-6.33 -1.58,-7.29 -1.42,-1.38 -4.74,-2.06 -9.89,-2.06 -11.85,0 -26.01,4.38 -42.52,13.06 -17.92,9.44 -38.26,23.8 -61,43.02 -22.95,19.59 -45.77,42.16 -68.41,67.65 -12.65,14.22 -25.22,29.32 -37.67,45.29 20.52,-6.62 40.05,-13.89 58.56,-21.82 32.43,-13.88 61.82,-29.75 88.1,-47.54 25.71,-17.47 44.94,-34.23 57.57,-50.29 11.2,-14.27 16.84,-27.6 16.84,-40.02zm-1443.89 -355.8c0,-26.51 -4.17,-50.31 -12.44,-71.37 -8.17,-20.8 -20.45,-39.12 -36.77,-54.87 -16.47,-15.88 -35.6,-27.75 -57.27,-35.63 -21.99,-7.98 -46.93,-11.96 -74.79,-11.96 -70.71,0 -140.39,18.44 -208.97,55.31 -69.3,37.26 -137.69,93.45 -205.07,168.49 -67.47,75.17 -118.11,151.62 -151.79,229.16 -33.38,76.89 -50.14,155.13 -50.14,234.6 0,51.21 9.3,94.71 27.88,130.5 15.93,30.68 38.86,55.97 68.75,75.84 17.15,-26.79 37.2,-54.64 60.13,-83.45 23.81,-29.91 50.82,-61.01 81.01,-93.21 -13.49,-13.75 -24.08,-28.58 -31.77,-44.42 -10.18,-20.98 -15.26,-43.57 -15.26,-67.71 0,-18.33 2.99,-35.47 8.93,-51.45 5.98,-16.02 14.85,-30.57 26.56,-43.73 12.07,-13.44 25.46,-23.57 40.15,-30.38 14.91,-6.89 30.92,-10.35 48.04,-10.35 22.73,0 40.31,5.8 52.73,17.32 12.79,11.87 19.17,28.75 19.17,50.59 0,11.06 -2.23,21.55 -6.65,31.35 -4.31,9.58 -10.72,18.38 -19.19,26.34 -8.41,7.91 -17.61,13.9 -27.64,17.91 -10.22,4.05 -20.98,6.09 -32.45,6.09 -31.99,0 -50.69,-13.31 -55.67,-39.93l-1.09 3.95c-2.06,8.08 -3.13,16.34 -3.13,24.74 0,15.31 3.56,29.79 10.65,43.42 5.28,10.24 12.56,20.05 21.83,29.51 53.74,-55.25 121.32,-114.6 202.63,-177.98 85.86,-66.92 187.13,-138.49 303.69,-214.59 5.79,-21.07 10.16,-40.73 13.12,-58.98 3.23,-19.86 4.83,-38.26 4.83,-55.12zm184.14 39.97l-54.66 35.58c-33.58,22.08 -68.39,45.34 -104.37,69.71 -18.31,57.2 -43.15,111.05 -74.54,161.42 -32.33,51.93 -71.67,100.26 -117.89,144.88 -46.47,45.01 -92.16,78.85 -137.06,101.48 -45.82,23.1 -90.85,34.65 -135.06,34.65 -13.86,0 -28.34,-1.79 -43.42,-5.36 -11.19,-2.65 -22.92,-6.38 -35.15,-11.18 -27.49,28.94 -53.01,58.5 -76.59,88.65 -21.62,27.65 -41.69,55.91 -60.19,84.71 15.92,5.94 32.61,10.63 50.06,14.08 24.33,4.83 50.16,7.25 77.52,7.25 49.79,0 98.79,-7.04 146.92,-21.13 48.21,-14.11 95.87,-35.4 142.89,-63.83 46.91,-28.36 90.63,-62.36 131.05,-101.96 40.24,-39.44 77.26,-84.49 110.89,-135.17l0.14 -0.14c15.44,-22.77 29.41,-45.18 41.97,-67.14 12.86,-22.5 23.85,-43.89 33.08,-64.13 9.22,-20.72 21.53,-50.93 36.85,-90.55 14.77,-38.24 32.37,-85.34 52.7,-141.24 4.55,-13.31 9.52,-26.86 14.87,-40.58zm-231.88 152.75l-8.56 5.78c-102.42,70.72 -190.75,135.65 -264.87,194.68 -64.63,51.48 -118.24,98.36 -160.75,140.56 3.31,1.07 6.64,2.02 10,2.83 10.84,2.62 22.26,3.95 34.2,3.95 35.57,0 72.15,-9.47 109.71,-28.36 38.53,-19.37 78.09,-48.57 118.67,-87.47 40.81,-39.21 76.37,-82.35 106.64,-129.42 20.8,-32.35 39.13,-66.53 54.96,-102.56zm588.15 -498.62c0,-1.4 0.6,-1.6 0.37,-1.81 -0.62,-0.46 -2.67,-0.71 -6.17,-0.71 -15.25,0 -31.71,5.42 -49.3,16.29 -19,11.74 -39.21,29.66 -60.57,53.76 -21.85,24.59 -41.24,51.11 -58.1,79.68 -8.2,13.91 -15.81,28.3 -22.82,43.14 18.56,-12.3 36.04,-24.5 52.45,-36.63 29.25,-21.66 55.55,-43.34 78.77,-65.09 22.85,-21.48 39.79,-40.13 50.86,-55.92 9.69,-13.84 14.51,-24.76 14.51,-32.72zm49.79 -1.69c0,16.66 -7.61,35.94 -22.86,57.81 -13.69,19.72 -34.3,42.43 -61.72,68.09 -26.79,25.31 -56.58,50.01 -89.3,74.12 -31.03,22.84 -64.76,45.21 -101.11,67.02 -4.46,14.84 -9.9,34.74 -16.26,59.68 -7.4,29.05 -15.73,63.37 -24.89,102.8l-0.06 0.14c-15.59,64.76 -30.39,119.99 -44.49,165.64 -14.31,46.39 -28.03,83.43 -41.19,111.1 -13.51,28.11 -31.19,56.34 -53.1,84.7 -21.68,28.06 -47.55,56.32 -77.6,84.72 -86.68,81.95 -178.83,143.5 -276.28,184.61 -97.75,41.24 -200.64,61.87 -308.56,61.87 -31.22,0 -60.81,-2.64 -88.69,-7.9 -22.37,-4.21 -43.63,-10.15 -63.75,-17.75 -8.97,18.88 -15.97,36.79 -20.94,53.63 -5.98,20.22 -8.99,38.85 -8.99,55.75 0,21.66 3.56,42.38 10.64,62.02 7.01,19.42 17.57,38.17 31.61,56.03 2.85,2.98 5.11,6.39 6.75,10.11 1.88,4.19 2.78,8.48 2.78,12.83 0,7.45 -2.74,13.5 -8.02,18.05 -4.54,3.88 -10.23,5.86 -17.02,5.86 -11.75,0 -22.84,-6.45 -33.06,-19.31 -7.72,-9.74 -15.52,-23.86 -23.23,-42.28 -7.67,-17.87 -13.42,-35.2 -17.23,-51.92 -3.91,-17.17 -5.86,-33.74 -5.86,-49.65 0,-22.84 3.73,-46.85 11.15,-72 5.89,-20.01 14.15,-40.76 24.76,-62.18 -52.69,-30.21 -92.86,-69.85 -120.48,-118.9 -29.97,-53.23 -44.97,-117.27 -44.97,-192.02 0,-47.8 7.08,-95.46 21.22,-142.97 14.05,-47.18 35.13,-94.24 63.16,-141.07 27.98,-46.93 61.57,-91.31 100.65,-133.13 39.04,-41.79 83.77,-81.32 134.05,-118.63 64.34,-47.42 128.53,-83.02 192.52,-106.83 64.53,-24 128.7,-36.02 192.34,-36.02 35.44,0 67.49,5.03 96.1,15.09 29.07,10.2 54.43,25.6 76.02,46.13 21.58,20.7 37.8,45 48.6,72.94 10.65,27.54 16.02,58.47 16.02,92.7 0,17.82 -1.33,36.19 -3.94,55.09l-2.38 15.16c26.77,-17.68 52.57,-34.46 77.39,-50.29 34.8,-22.22 67.23,-42.37 97.26,-60.46 19.49,-42.04 41.43,-81.17 65.75,-117.42 25.33,-37.77 53.27,-72.41 83.81,-104 30.49,-31.86 59.49,-55.92 86.82,-72.19 28.79,-17.13 55.83,-25.7 81.01,-25.7 16.89,0 30.18,3.96 39.75,11.92 10.54,8.7 15.84,21.05 15.84,37.02zm-2555.17 1480.53l19.53 -6.32 40.51 25.96 0 26.52 -13.84 20.57 -33.28 -6.8 -25.89 -40.29 6.57 -13.04 6.4 -6.6zm457.9 -6.32l39.45 -7.14 66.49 7.14 53.6 -7.14 46.04 0 33.16 7.14 -6.68 33.15 -79.2 19.33 -146.6 20.57 -52.51 6.26 -53.7 20.2 -19.19 -7.11 -20.29 13.76 -139.33 26.46 -52.85 19.71 -119.74 59.97 0 6.3 -26.71 20.4 -6.58 0 -19.35 12.82 -7.22 13.13 -13.18 7.18 0 25.93 -6.27 0 -46.97 13.77 -32.62 25.93 -33.17 0 -33.2 7.17 -13.9 -7.17 0 -19.48 33.55 -20.22 13.55 0 6.68 -6.46 0 -39.78 33.05 -39.52 92.48 -47.06 20.09 -12.91 46.13 -52.82 26.87 6.65 26.61 -13.76 99.79 -46.35 66.22 -12.9 46.18 -7.19 20.3 7.19 33.18 -20.23 6.68 0 12.93 6.46 39.47 -13.06 66.73 -6.32zm-338.66 -975.82l0 -6.88 20.2 0 0 6.88 6.47 7.09 26.58 6.68 6.66 72.59 -19.53 26.89 6.58 46.16 6.29 12.91 -12.87 66.38 6.58 26.85 6.29 86.47 0 39.73 -20.2 26.64 7.33 25.95 12.87 14 0 66.22 6.66 0 6.39 -7.05 13.83 7.05 -7.13 19.34 -19.75 -6.32 -6.29 20.11 -6.58 0 -26.77 6.58 -26.59 -13.75 6.38 -19.3 13.66 -26.87 6.55 -6.68 0 -20.15 -20.21 -26.52 6.6 -19.5 -6.6 0 -19.43 19.5 6.57 7.34 -6.57 119.03 -7.28 26.47 -12.92 0 -6.6 -12.89 0 -7.32 -6.36 0 -7.19 7.32 -6.65 92.38 0 126.39 -13.06 6.46 6.65 20.18 -12.84 26.1 12.84 20.07 6.41 60 -59.17 33.26 -33.11 -33.26 -7.22 -20.09 7.22 -12.99 12.87 6.19 6.48 13.15 6.58 0 7.18 -6.35 0 -19.63 12.97 -47.07 -12.97 -12.76 19.53 -46.91 -12.96 -13.03 -13.75 0 -13.06 -6.58 -20.09 -39.4 7.22 -33.3 19.35 0 13.76 33.3 6.57 0 0 -93.27 -20.33 39.55 -26.57 6.66 -6.68 -6.66 6.68 -52.61 7.22 -13.86 -7.22 -6.36 0 -19.55 13.73 0 6.36 6.65 0 12.9 6.48 -6.66 0 -6.24 13.76 0 6.57 12.9 12.96 -19.55 6.36 -40.43 -12.92 0 -20.15 33.11 -25.93 -39.73 12.87 -59.64 0 -6.74 20.24 -26.52 -7.18 -32.61 13.75 -40.42 0 -112.42 6.4 -52.81 0 -26.64 6.56 -6.63 0 -7.15 -19.53 7.15 -7.18 -33.11 53.29 -80.21 33.26 13.75 6.6 -6.56 -12.96 -33.14 19.42 -20.21 39.77 -19.99zm-1379.12 -540.16l1800.35 0 0 1800.46 -1800.35 0 0 -1800.46z"/>
 </g>
</svg>