<svg xmlns="http://www.w3.org/2000/svg" xmlns:xlink="http://www.w3.org/1999/xlink" version="1.1" id="Ebene_1" x="0px" y="0px" viewBox="0 0 301.9 63" enable-background="new 0 0 301.9 63" xml:space="preserve">
<path fill="#ffffff" d="M96.6,27L93,41.6c-0.3,1-0.4,2-0.6,3c-0.2-0.9-0.4-1.8-0.7-2.9l-4-14.7H80l1.9,6.2L79.4,42  c-0.3,0.9-0.5,1.9-0.7,2.8c-0.2-0.7-0.4-1.4-0.6-2.2L73.8,27h-7.9l8,26.8L74,54h7.3L85,41.9L88.6,54h7.3l8-27H96.6z M121.9,33v-6  h-17v27h17v-6h-10v-5.1h8.5v-5.5h-8.5V33H121.9z M125.9,54h7V27h-7V54z M145.2,48.2V27h-7.3v27h17v-5.8H145.2z M173.5,39.9  c1.8-0.8,3.6-2.7,3.6-5.9c0-4.3-3.5-7-9.3-7h-10.9v27H168c6.1,0,9.9-3.1,9.9-8C177.9,43,176.3,40.9,173.5,39.9z M164,42.6h3  c2.1,0,3.2,1,3.2,2.9c0,2.4-1.8,2.9-3.2,2.9h-3C164,48.4,164,42.6,164,42.6z M166.9,37.6H164v-4.9h2.9c2,0,3,0.8,3,2.4  C169.9,36.8,168.9,37.6,166.9,37.6z M197.1,27v17c0,3.3-1.5,4.9-4.5,4.9c-3.7,0-4.5-2.7-4.5-4.9V27h-7.2v17.2  c0,7.1,4,10.8,11.7,10.8c7.5,0,11.3-3.7,11.3-10.8V27H197.1z M230.6,49.2h-0.7c-0.6,0-1.4-0.1-2.1-1.2l-3.5-5.3  c3.8-1.9,4.4-5.3,4.4-7.1c0-5.3-3.6-8.6-9.3-8.6h-11.5v27.6h7.3V44.3h2l4.2,6.6c2.2,3.5,4.2,4.1,7.1,4.1c0.7,0,1.4-0.1,2.2-0.3  l0.2-0.1v-5.5C230.9,49.1,230.6,49.2,230.6,49.2z M215.2,32.9h2.9c2.1,0,3.2,1.1,3.2,3.1s-1.2,3.1-3.2,3.1h-2.9  C215.2,39.1,215.2,32.9,215.2,32.9z M243.8,39.2v5.6h4v4c-0.7,0.2-1.4,0.3-2.5,0.3c-4.5,0-6.8-2.7-6.8-7.8c0-5.5,2.4-8.3,7.1-8.3  c2.8,0,5.1,0.5,7.5,1.6l0.4,0.2v-6.3l-0.2-0.1c-2.3-1-4.8-1.4-8.1-1.4c-10.6,0-14.4,7.4-14.4,14.3c0,8.4,5.5,13.7,14.2,13.7  c4.2,0,7.4-0.9,9.6-1.6l0.2-0.1V39.2H243.8z M274.9,33v-6h-17v27h17v-6h-10v-5.1h8.5v-5.5h-8.5V33H274.9z M301.6,49.2h-0.7  c-0.6,0-1.4-0.1-2.1-1.2l-3.5-5.3c3.8-1.9,4.4-5.3,4.4-7.1c0-5.3-3.6-8.6-9.3-8.6h-11.5v27.6h7.3V44.3h2l4.2,6.6  c2.2,3.5,4.2,4.1,7.1,4.1c0.7,0,1.4-0.1,2.2-0.3l0.2-0.1v-5.5L301.6,49.2L301.6,49.2z M286.2,32.9h2.9c2.1,0,3.2,1.1,3.2,3.1  s-1.2,3.1-3.2,3.1h-2.9C286.2,39.1,286.2,32.9,286.2,32.9z M27.9,27h18c1.9,3.5,3,7.6,3,11.9V39h-21V27z"/>
<path fill="#ffffff" d="M34.2,42l-0.4,1.1c-1.6,4.1-5.6,6.8-10.1,6.8c-3,0-5.7-1.2-7.7-3.1L4.9,54.3c0.5,0.6,1,1.1,1.5,1.7  c4.6,4.5,10.7,7,17.2,7s12.6-2.5,17.3-7c3.3-3.2,5.6-7.3,6.6-11.7c0.2-0.9,0.3-1.8,0.4-2.3H34.2z"/>
<path fill="#ffffff" d="M7.5,20.3c-2.4,2.2-4.2,4.9-5.5,7.8c-1.4,3.1-2,6.3-2,9.7c0,4.7,1.4,9.3,3.9,13.2l11-7.6  c-0.9-1.6-1.5-3.5-1.5-5.4c0-2.9,1.4-6,3.8-8.3c0,0,7.1-7.1,9.5-9.4c0.3-0.3,1.2-1,1.2-1V0L7.5,20.3z"/>
</svg>