<?xml version="1.0" encoding="UTF-8"?>
<!DOCTYPE svg PUBLIC "-//W3C//DTD SVG 1.1//EN" "http://www.w3.org/Graphics/SVG/1.1/DTD/svg11.dtd">
<!-- Creator: CorelDRAW 2020 (64-Bit Evaluation Version) -->
<svg xmlns="http://www.w3.org/2000/svg" xml:space="preserve" width="0.833331in" height="0.313331in" version="1.1" style="shape-rendering:geometricPrecision; text-rendering:geometricPrecision; image-rendering:optimizeQuality; fill-rule:evenodd; clip-rule:evenodd"
viewBox="0 0 833.33 313.33"
 xmlns:xlink="http://www.w3.org/1999/xlink"
 xmlns:xodm="http://www.corel.com/coreldraw/odm/2003">
 <defs>
  <style type="text/css">
   <![CDATA[
    .str0 {stroke:#FEFEFE;stroke-width:9.37;stroke-miterlimit:2.61313}
    .fil0 {fill:none}
    .fil4 {fill:#0097DB}
    .fil3 {fill:#363075}
    .fil2 {fill:#E31E24}
    .fil5 {fill:#FBBB00}
    .fil6 {fill:#2B2A29;fill-rule:nonzero}
    .fil1 {fill:#CEC995;fill-rule:nonzero}
   ]]>
  </style>
 </defs>
 <g id="Layer_x0020_1">
  <metadata id="CorelCorpID_0Corel-Layer"/>
  <polygon class="fil0 str0" points="6.95,304.81 84.24,26.52 140.87,129.69 197.85,26.69 275.67,306.11 183.21,148.07 141.23,228.39 99.28,148.4 "/>
  <path class="fil1" d="M90.95 28.38l-77.29 278.28 -13.41 -3.71 77.29 -278.28 12.79 -1.5 0.62 5.21zm-13.41 -3.71c1.01,-3.71 4.85,-5.89 8.56,-4.85 3.71,1.01 5.86,4.85 4.85,8.56l-13.41 -3.71 0 -0zm57.24 108.37l-56.66 -103.16 12.2 -6.7 56.66 103.17 -0.03 6.74 -12.17 -0.03 -0 -0zm12.2 -6.7c1.82,3.38 0.62,7.61 -2.76,9.47 -3.35,1.82 -7.58,0.59 -9.44,-2.77l12.2 -6.7zm56.95 -96.27l-56.98 103 -12.17 -6.74 56.99 -103 12.79 1.5 -0.62 5.24zm-12.17 -6.74c1.85,-3.35 6.08,-4.59 9.44,-2.73 3.39,1.85 4.59,6.12 2.73,9.47l-12.17 -6.74 0 0zm77.19 284.63l-77.81 -279.39 13.41 -3.74 77.81 279.39 -12.69 5.37 -0.72 -1.63zm13.41 -3.74c1.04,3.71 -1.14,7.55 -4.81,8.59 -3.71,1.01 -7.55,-1.14 -8.59,-4.85l13.41 -3.74zm-93.17 -159.63l92.49 158 -12.01 7 -92.49 -158 -0.16 -6.74 12.17 -0.26zm-12.01 7c-1.92,-3.29 -0.81,-7.55 2.5,-9.5 3.32,-1.95 7.59,-0.81 9.5,2.51l-12.01 7zm-42.11 73.58l41.95 -80.32 12.33 6.44 -41.95 80.31 -12.33 0 0 -6.44zm12.33 6.44c-1.79,3.39 -5.99,4.72 -9.41,2.93 -3.39,-1.76 -4.72,-5.99 -2.93,-9.37l12.33 6.44 0 0zm-41.98 -86.44l41.98 79.96 -12.33 6.48 -41.95 -79.99 0.16 -6.77 12.14 0.32 0 0zm-12.3 6.44c-1.79,-3.39 -0.49,-7.58 2.93,-9.37 3.39,-1.79 7.58,-0.49 9.37,2.93l-12.3 6.44zm-92.17 149.67l92.33 -156.44 11.98 7.09 -92.33 156.41 -12.69 -5.4 0.72 -1.66 0 0zm11.98 7.06c-1.95,3.32 -6.22,4.39 -9.54,2.44 -3.29,-1.95 -4.39,-6.22 -2.44,-9.5l11.98 7.06 0 0z"/>
  <polygon id="_1" class="fil2" points="6.95,304.81 84.24,26.52 140.87,129.69 197.85,26.69 275.67,306.11 183.21,148.07 141.23,228.39 99.28,148.4 "/>
  <path class="fil1" d="M796.63 147.46l-11.88 7.26 10.12 1.92 -2.67 2.02 -2.67 1.92 -2.61 1.79 -2.57 1.69 -2.5 1.59 -2.47 1.5 -2.44 1.37 -2.37 1.27 -2.38 1.17 -2.31 1.07 -2.31 0.94 -2.24 0.85 -2.21 0.75 -2.21 0.62 -2.18 0.49 -2.15 0.39 -2.15 0.26 -2.12 0.13 -2.08 0 -2.08 -0.16 -2.05 -0.29 -1.99 -0.46 -1.95 -0.59 -1.89 -0.78 -1.82 -0.91 -1.72 -1.04 -1.66 -1.2 -1.56 -1.33 -1.43 -1.46 -1.37 -1.56 -1.27 -1.66 -1.14 -1.79 11.85 -7.26 0.69 1.04 0.72 0.94 0.71 0.81 0.72 0.72 0.72 0.62 0.75 0.55 0.75 0.46 0.81 0.39 0.81 0.36 0.88 0.26 0.94 0.23 1.01 0.13 1.07 0.07 1.17 0.03 1.27 -0.1 1.33 -0.16 1.43 -0.26 1.5 -0.33 1.59 -0.46 1.69 -0.55 1.76 -0.65 1.82 -0.78 1.92 -0.88 1.98 -0.98 2.05 -1.11 2.12 -1.2 2.21 -1.3 2.24 -1.43 2.31 -1.53 2.41 -1.66 2.44 -1.76 2.5 -1.85 10.15 1.89 0 -0zm-10.15 -1.89c3.06,-2.34 7.42,-1.72 9.73,1.33 2.34,3.06 1.72,7.42 -1.33,9.73l-8.39 -11.06zm3.19 17.18l-4.91 -8.04 11.88 -7.26 4.88 8.04 -0.81 8.36 -11.03 -1.11 0 0zm11.85 -7.26c2.02,3.29 0.98,7.58 -2.28,9.57 -3.29,2.02 -7.58,0.98 -9.57,-2.31l11.85 -7.26zm-72.8 36.94l0.68 -13.9 0 0 1.98 0.07 2.05 -0.03 2.05 -0.07 2.08 -0.16 2.15 -0.23 2.18 -0.29 2.15 -0.36 2.21 -0.43 2.18 -0.49 2.21 -0.55 2.21 -0.59 2.21 -0.69 2.18 -0.71 2.18 -0.75 2.15 -0.81 2.12 -0.85 2.11 -0.88 2.05 -0.94 2.05 -0.98 1.95 -0.98 1.95 -1.04 1.89 -1.07 1.82 -1.07 1.76 -1.11 1.66 -1.11 1.63 -1.14 1.56 -1.14 1.43 -1.17 1.37 -1.14 1.3 -1.14 1.17 -1.14 1.07 -1.14 10.22 9.44 -1.43 1.5 -1.56 1.53 -1.63 1.43 -1.72 1.43 -1.76 1.43 -1.85 1.37 -1.92 1.37 -1.98 1.3 -2.05 1.3 -2.12 1.24 -2.18 1.24 -2.18 1.17 -2.28 1.14 -2.31 1.11 -2.34 1.04 -2.37 1.04 -2.41 0.94 -2.44 0.91 -2.47 0.88 -2.48 0.81 -2.54 0.75 -2.51 0.68 -2.54 0.62 -2.57 0.55 -2.54 0.52 -2.57 0.43 -2.54 0.33 -2.57 0.29 -2.54 0.16 -2.54 0.13 -2.54 0 -2.47 -0.06 -0.03 0 0 0zm-45.24 -46.31l13.93 -0.29 0 0 0.1 2.47 0.2 2.31 0.29 2.21 0.39 2.05 0.45 1.92 0.56 1.82 0.58 1.69 0.69 1.59 0.72 1.46 0.78 1.4 0.85 1.3 0.88 1.17 0.94 1.14 0.98 1.07 1.04 0.98 1.07 0.91 1.11 0.85 1.17 0.81 1.2 0.71 1.24 0.69 1.27 0.62 1.33 0.59 1.33 0.49 1.4 0.49 1.37 0.39 1.43 0.36 1.43 0.33 1.43 0.26 1.43 0.23 1.46 0.16 1.43 0.13 1.43 0.09 -0.68 13.9 -1.79 -0.1 -1.85 -0.19 -1.85 -0.2 -1.89 -0.29 -1.85 -0.36 -1.89 -0.39 -1.92 -0.49 -1.89 -0.55 -1.92 -0.65 -1.86 -0.71 -1.89 -0.81 -1.85 -0.91 -1.82 -1.01 -1.79 -1.07 -1.76 -1.2 -1.72 -1.3 -1.66 -1.43 -1.59 -1.53 -1.53 -1.63 -1.46 -1.76 -1.37 -1.89 -1.27 -1.99 -1.2 -2.08 -1.07 -2.21 -0.98 -2.31 -0.88 -2.44 -0.75 -2.5 -0.62 -2.67 -0.52 -2.73 -0.39 -2.87 -0.26 -2.96 -0.13 -3.06 0 0 0 -0zm41.46 -62.35l6.48 12.33 0 0 -1.79 0.94 -1.76 1.04 -1.76 1.11 -1.69 1.14 -1.69 1.2 -1.66 1.24 -1.59 1.3 -1.59 1.37 -1.53 1.4 -1.5 1.43 -1.46 1.46 -1.4 1.53 -1.37 1.56 -1.3 1.56 -1.24 1.63 -1.17 1.66 -1.14 1.66 -1.04 1.69 -1.01 1.72 -0.94 1.72 -0.85 1.72 -0.81 1.79 -0.72 1.76 -0.65 1.79 -0.59 1.79 -0.49 1.76 -0.42 1.82 -0.33 1.79 -0.26 1.76 -0.17 1.79 -0.09 1.79 0 1.79 -13.93 0.3 0.03 -2.44 0.1 -2.44 0.26 -2.44 0.33 -2.37 0.45 -2.41 0.56 -2.34 0.65 -2.34 0.72 -2.31 0.85 -2.28 0.91 -2.24 1.01 -2.21 1.07 -2.21 1.17 -2.15 1.24 -2.11 1.3 -2.08 1.37 -2.02 1.43 -2.02 1.53 -1.95 1.56 -1.92 1.63 -1.85 1.69 -1.82 1.72 -1.76 1.79 -1.72 1.85 -1.66 1.89 -1.63 1.92 -1.53 1.98 -1.5 2.02 -1.46 2.05 -1.37 2.08 -1.3 2.15 -1.27 2.15 -1.17 0 0 0 0zm75.04 4.07l-10.12 9.54 0 0 -1.33 -1.33 -1.4 -1.24 -1.43 -1.11 -1.5 -1.01 -1.56 -0.91 -1.59 -0.81 -1.63 -0.75 -1.69 -0.62 -1.76 -0.56 -1.79 -0.49 -1.82 -0.39 -1.89 -0.29 -1.89 -0.23 -1.95 -0.13 -1.95 -0.07 -2.02 0.03 -2.02 0.1 -2.02 0.16 -2.05 0.23 -2.05 0.29 -2.02 0.36 -2.05 0.46 -2.05 0.49 -1.98 0.52 -2.02 0.62 -1.95 0.65 -1.95 0.69 -1.92 0.75 -1.85 0.75 -1.82 0.85 -1.76 0.85 -1.72 0.88 -6.48 -12.33 2.02 -1.04 2.12 -0.98 2.15 -0.98 2.18 -0.91 2.24 -0.88 2.28 -0.81 2.31 -0.75 2.34 -0.72 2.41 -0.65 2.41 -0.59 2.44 -0.49 2.44 -0.46 2.51 -0.36 2.47 -0.29 2.54 -0.2 2.5 -0.13 2.51 0 2.54 0.07 2.5 0.19 2.54 0.3 2.5 0.39 2.47 0.52 2.48 0.65 2.44 0.78 2.41 0.91 2.38 1.04 2.31 1.2 2.28 1.33 2.18 1.5 2.15 1.66 2.05 1.79 1.96 1.95 0 0 0 0zm-6.93 55.78l-9.63 -10.06 0 0.03 0.88 -0.91 0.88 -0.94 0.85 -1.01 0.81 -1.04 0.78 -1.11 0.75 -1.17 0.75 -1.17 0.69 -1.24 0.62 -1.24 0.59 -1.3 0.55 -1.3 0.49 -1.3 0.46 -1.3 0.39 -1.37 0.33 -1.3 0.26 -1.33 0.23 -1.3 0.16 -1.3 0.1 -1.3 0.03 -1.24 0 -1.24 -0.09 -1.17 -0.13 -1.17 -0.22 -1.11 -0.26 -1.07 -0.29 -1.04 -0.39 -0.98 -0.43 -0.91 -0.49 -0.91 -0.55 -0.85 -0.59 -0.81 -0.69 -0.78 10.12 -9.54 1.37 1.56 1.2 1.63 1.11 1.69 0.94 1.76 0.85 1.79 0.69 1.82 0.58 1.85 0.46 1.89 0.33 1.92 0.26 1.89 0.13 1.95 0.03 1.89 -0.06 1.92 -0.13 1.92 -0.26 1.92 -0.29 1.85 -0.39 1.89 -0.49 1.89 -0.52 1.82 -0.62 1.82 -0.69 1.79 -0.71 1.79 -0.81 1.72 -0.88 1.72 -0.94 1.69 -0.98 1.59 -1.04 1.59 -1.11 1.56 -1.17 1.5 -1.2 1.43 -1.27 1.37 -1.3 1.33 0 0 0 0zm-52.92 12.33l-11.85 7.26 5.63 -10.58 2.05 -0.09 2.02 -0.13 1.98 -0.17 1.92 -0.19 1.89 -0.23 1.85 -0.26 1.82 -0.3 1.79 -0.32 1.72 -0.36 1.72 -0.36 1.66 -0.43 1.63 -0.45 1.63 -0.46 1.56 -0.52 1.53 -0.56 1.53 -0.55 1.46 -0.59 1.46 -0.65 1.43 -0.65 1.4 -0.71 1.4 -0.72 1.37 -0.78 1.33 -0.78 1.3 -0.85 1.33 -0.85 1.27 -0.91 1.27 -0.94 1.27 -0.98 1.24 -1.01 1.24 -1.04 1.2 -1.11 1.2 -1.14 9.63 10.06 -1.43 1.33 -1.46 1.3 -1.46 1.27 -1.5 1.24 -1.53 1.17 -1.53 1.14 -1.56 1.11 -1.59 1.04 -1.63 1.04 -1.66 0.98 -1.66 0.94 -1.69 0.88 -1.72 0.85 -1.76 0.81 -1.79 0.78 -1.79 0.72 -1.82 0.69 -1.85 0.65 -1.92 0.62 -1.89 0.56 -1.95 0.55 -1.95 0.49 -2.02 0.43 -2.02 0.42 -2.05 0.39 -2.11 0.33 -2.12 0.3 -2.15 0.26 -2.18 0.19 -2.21 0.2 -2.25 0.16 -2.28 0.1 5.63 -10.57 0 -0zm-5.63 10.57c-3.84,0.16 -7.09,-2.83 -7.26,-6.67 -0.16,-3.84 2.83,-7.06 6.67,-7.23l0.59 13.9zm40.26 -63.04l-13.86 1.07 0 0 -0.03 -0.45 -0.07 -0.46 -0.07 -0.42 -0.06 -0.43 -0.07 -0.39 -0.09 -0.33 -0.07 -0.39 -0.1 -0.36 -0.09 -0.29 -0.13 -0.3 -0.1 -0.29 -0.1 -0.26 -0.13 -0.23 -0.1 -0.23 -0.13 -0.2 -0.09 -0.16 -0.1 -0.16 -0.13 -0.16 -0.1 -0.13 -0.13 -0.13 -0.1 -0.06 -0.09 -0.1 -0.1 -0.1 -0.1 -0.09 -0.13 -0.07 -0.06 -0.06 -0.13 -0.03 -0.13 -0.07 -0.13 -0.07 -0.16 -0.03 -0.16 -0.06 -0.16 -0.03 2.99 -13.61 0.85 0.2 0.78 0.26 0.78 0.26 0.81 0.33 0.75 0.36 0.75 0.39 0.72 0.46 0.68 0.46 0.65 0.49 0.62 0.52 0.62 0.52 0.59 0.62 0.52 0.59 0.52 0.62 0.45 0.62 0.46 0.65 0.43 0.69 0.39 0.69 0.36 0.69 0.33 0.68 0.32 0.72 0.3 0.75 0.23 0.72 0.26 0.75 0.19 0.75 0.17 0.71 0.19 0.75 0.13 0.78 0.13 0.75 0.09 0.78 0.1 0.78 0.07 0.78 0 0 -0.01 -0.01zm-5.47 24.99l-12.53 -5.99 0 0 0.29 -0.65 0.3 -0.62 0.26 -0.62 0.26 -0.62 0.26 -0.62 0.23 -0.62 0.23 -0.62 0.23 -0.62 0.23 -0.62 0.19 -0.59 0.16 -0.62 0.2 -0.59 0.16 -0.62 0.13 -0.59 0.17 -0.58 0.13 -0.59 0.13 -0.56 0.1 -0.55 0.09 -0.59 0.1 -0.56 0.07 -0.52 0.06 -0.55 0.07 -0.56 0.06 -0.52 0.03 -0.49 0.03 -0.52 0 -0.49 0.04 -0.46 0 -0.49 -0.04 -0.46 0 -0.45 -0.03 -0.43 13.87 -1.07 0.06 0.75 0.03 0.75 0 0.75 0 0.72 0 0.78 -0.03 0.75 -0.03 0.75 -0.06 0.78 -0.07 0.78 -0.1 0.75 -0.09 0.78 -0.1 0.81 -0.13 0.78 -0.13 0.75 -0.17 0.78 -0.19 0.81 -0.16 0.78 -0.2 0.78 -0.2 0.78 -0.23 0.81 -0.22 0.78 -0.26 0.81 -0.26 0.81 -0.26 0.78 -0.29 0.78 -0.3 0.81 -0.33 0.81 -0.32 0.78 -0.33 0.81 -0.36 0.81 -0.36 0.78 -0.39 0.81 0 -0.03 0 0zm0 0.03c-1.66,3.45 -5.79,4.92 -9.28,3.26 -3.45,-1.66 -4.91,-5.82 -3.25,-9.28l12.53 6.02 0 0zm-14.61 19.46l-9.02 -10.61 0 0 0.39 -0.33 0.36 -0.33 0.35 -0.36 0.36 -0.32 0.39 -0.36 0.39 -0.39 0.36 -0.39 0.36 -0.39 0.39 -0.39 0.36 -0.42 0.39 -0.43 0.35 -0.42 0.36 -0.43 0.36 -0.45 0.36 -0.49 0.36 -0.46 0.36 -0.49 0.36 -0.49 0.36 -0.49 0.33 -0.49 0.36 -0.49 0.35 -0.56 0.33 -0.52 0.33 -0.52 0.33 -0.52 0.29 -0.56 0.33 -0.55 0.33 -0.59 0.29 -0.55 0.29 -0.59 0.3 -0.56 0.29 -0.58 12.53 5.98 -0.36 0.75 -0.36 0.75 -0.39 0.72 -0.39 0.75 -0.39 0.69 -0.39 0.72 -0.39 0.68 -0.43 0.72 -0.42 0.69 -0.42 0.65 -0.43 0.65 -0.46 0.65 -0.45 0.68 -0.46 0.62 -0.45 0.62 -0.46 0.62 -0.46 0.62 -0.49 0.59 -0.45 0.58 -0.49 0.59 -0.49 0.59 -0.49 0.55 -0.49 0.56 -0.49 0.52 -0.52 0.56 -0.52 0.52 -0.49 0.49 -0.52 0.52 -0.52 0.46 -0.52 0.49 -0.56 0.49 -0.49 0.45 0 0 -0 0zm-18.94 7.87l0.36 -13.93 0.03 0 0.16 0 0.2 0 0.23 0 0.19 -0.03 0.23 -0.03 0.23 -0.03 0.23 -0.03 0.26 -0.07 0.26 -0.06 0.3 -0.07 0.26 -0.07 0.26 -0.09 0.29 -0.1 0.3 -0.13 0.33 -0.13 0.29 -0.13 0.33 -0.13 0.29 -0.17 0.36 -0.16 0.33 -0.16 0.33 -0.2 0.36 -0.19 0.32 -0.23 0.36 -0.23 0.36 -0.23 0.33 -0.23 0.39 -0.26 0.33 -0.26 0.36 -0.26 0.39 -0.3 0.36 -0.29 0.36 -0.29 9.02 10.61 -0.56 0.43 -0.52 0.42 -0.52 0.43 -0.52 0.39 -0.56 0.42 -0.52 0.36 -0.55 0.39 -0.59 0.36 -0.52 0.35 -0.59 0.36 -0.56 0.33 -0.58 0.33 -0.56 0.29 -0.59 0.3 -0.58 0.29 -0.59 0.26 -0.62 0.26 -0.59 0.22 -0.59 0.23 -0.62 0.23 -0.62 0.2 -0.62 0.19 -0.62 0.17 -0.62 0.16 -0.62 0.13 -0.65 0.1 -0.62 0.09 -0.65 0.1 -0.69 0.03 -0.65 0.03 -0.62 0.03 -0.69 0 0 0 -0 0zm-16.01 -11.88l13.02 -4.91 0 0 0.1 0.22 0.1 0.23 0.09 0.2 0.1 0.19 0.1 0.2 0.09 0.16 0.1 0.17 0.1 0.13 0.09 0.16 0.1 0.1 0.07 0.09 0.13 0.13 0.09 0.1 0.07 0.07 0.07 0.06 0.09 0.07 0.1 0.06 0.06 0.07 0.1 0.06 0.1 0.04 0.1 0.06 0.09 0.03 0.07 0.03 0.13 0.07 0.13 0.03 0.07 0.03 0.16 0.03 0.13 0 0.13 0.03 0.16 0.04 0.17 0 0.16 0 -0.36 13.93 -0.69 -0.03 -0.69 -0.06 -0.65 -0.07 -0.69 -0.1 -0.65 -0.16 -0.65 -0.13 -0.69 -0.2 -0.62 -0.19 -0.62 -0.23 -0.65 -0.29 -0.62 -0.3 -0.58 -0.29 -0.59 -0.33 -0.56 -0.36 -0.55 -0.36 -0.56 -0.42 -0.49 -0.39 -0.49 -0.45 -0.52 -0.46 -0.46 -0.45 -0.42 -0.49 -0.42 -0.52 -0.43 -0.52 -0.36 -0.49 -0.36 -0.55 -0.36 -0.56 -0.32 -0.55 -0.3 -0.59 -0.29 -0.56 -0.3 -0.62 -0.22 -0.59 -0.26 -0.58 0 0 0.01 0zm0.62 -24.44l13.28 4.17 0 0 -0.2 0.65 -0.2 0.65 -0.16 0.62 -0.16 0.62 -0.13 0.62 -0.13 0.62 -0.13 0.62 -0.13 0.56 -0.06 0.59 -0.1 0.58 -0.1 0.56 -0.03 0.52 -0.06 0.56 -0.03 0.52 -0.03 0.52 -0.04 0.49 0 0.49 0 0.46 0 0.45 0.04 0.49 0.03 0.43 0.03 0.39 0.03 0.43 0.06 0.42 0.07 0.33 0.07 0.39 0.06 0.36 0.07 0.29 0.09 0.33 0.1 0.3 0.07 0.29 0.09 0.26 -13.02 4.91 -0.23 -0.65 -0.23 -0.69 -0.19 -0.65 -0.17 -0.69 -0.16 -0.72 -0.16 -0.68 -0.13 -0.69 -0.1 -0.72 -0.1 -0.72 -0.09 -0.71 -0.07 -0.75 -0.03 -0.75 -0.03 -0.72 -0.03 -0.75 0 -0.78 0.03 -0.78 0.03 -0.75 0.03 -0.78 0.07 -0.78 0.06 -0.78 0.1 -0.81 0.13 -0.81 0.1 -0.78 0.13 -0.81 0.16 -0.85 0.16 -0.81 0.2 -0.81 0.2 -0.85 0.23 -0.85 0.22 -0.85 0.23 -0.85 0.26 -0.88 0 0.03 0 0zm15.49 -25.48l9.7 9.99 0 0 -0.45 0.46 -0.49 0.49 -0.43 0.49 -0.49 0.49 -0.46 0.52 -0.42 0.52 -0.46 0.56 -0.45 0.55 -0.43 0.56 -0.42 0.56 -0.46 0.62 -0.42 0.58 -0.39 0.59 -0.39 0.62 -0.42 0.59 -0.39 0.65 -0.39 0.62 -0.36 0.65 -0.36 0.65 -0.36 0.65 -0.36 0.65 -0.33 0.68 -0.32 0.65 -0.33 0.68 -0.3 0.69 -0.29 0.72 -0.29 0.68 -0.3 0.69 -0.26 0.72 -0.23 0.69 -0.26 0.72 -0.23 0.71 -13.28 -4.17 0.29 -0.94 0.33 -0.91 0.33 -0.91 0.36 -0.91 0.36 -0.91 0.35 -0.88 0.36 -0.88 0.39 -0.88 0.42 -0.85 0.43 -0.88 0.42 -0.85 0.46 -0.85 0.45 -0.85 0.46 -0.81 0.49 -0.85 0.49 -0.78 0.49 -0.81 0.52 -0.78 0.49 -0.78 0.56 -0.78 0.55 -0.78 0.52 -0.72 0.55 -0.75 0.59 -0.75 0.59 -0.72 0.55 -0.68 0.62 -0.72 0.59 -0.69 0.62 -0.65 0.62 -0.69 0.65 -0.65 0.62 -0.62 0 0 0 -0zm24.7 -9.63l-3 13.6 0 0 -0.16 -0.03 -0.2 -0.03 -0.19 -0.03 -0.23 0 -0.23 0 -0.23 0 -0.29 0.03 -0.29 0.03 -0.3 0.07 -0.33 0.06 -0.32 0.07 -0.36 0.1 -0.36 0.13 -0.36 0.09 -0.39 0.17 -0.43 0.16 -0.42 0.19 -0.43 0.2 -0.42 0.23 -0.43 0.26 -0.45 0.26 -0.46 0.26 -0.46 0.32 -0.49 0.3 -0.45 0.36 -0.46 0.32 -0.49 0.39 -0.49 0.39 -0.49 0.39 -0.45 0.42 -0.49 0.46 -0.49 0.45 -9.7 -9.99 0.69 -0.62 0.65 -0.62 0.72 -0.62 0.69 -0.59 0.68 -0.55 0.72 -0.56 0.72 -0.55 0.72 -0.49 0.72 -0.49 0.71 -0.49 0.72 -0.45 0.75 -0.43 0.75 -0.42 0.78 -0.39 0.75 -0.36 0.78 -0.36 0.75 -0.33 0.78 -0.29 0.81 -0.3 0.81 -0.23 0.78 -0.22 0.81 -0.2 0.81 -0.16 0.81 -0.13 0.85 -0.1 0.85 -0.07 0.81 -0.06 0.88 0 0.85 0.06 0.85 0.07 0.85 0.13 0.88 0.16 0 0 0 0zm-75.15 -70.23l-50.9 0 0 -13.9 50.9 0 6.9 7.84 -6.9 6.05 0 0zm0 -13.9c3.84,0 6.96,3.09 6.96,6.93 0,3.84 -3.12,6.96 -6.96,6.96l0 -13.9zm-32.35 200.18l25.45 -194.13 13.8 1.79 -25.45 194.15 -13.8 0 0 -1.82 0 0zm13.8 1.82c-0.52,3.81 -4,6.48 -7.81,5.98 -3.81,-0.49 -6.51,-4 -5.99,-7.81l13.8 1.82zm-25.45 -195.95l25.45 194.13 -13.8 1.82 -25.45 -194.16 6.9 -7.84 6.9 6.06 0 -0zm-13.8 1.79c-0.52,-3.81 2.18,-7.29 5.99,-7.81 3.81,-0.49 7.29,2.21 7.81,6.02l-13.8 1.79zm-43.61 90.21l-1.5 -13.87 0 0 1.56 -0.09 1.56 0.06 1.5 0.2 1.5 0.33 1.43 0.45 1.33 0.56 1.27 0.69 1.2 0.75 1.11 0.85 1.04 0.91 0.98 0.94 0.88 1.04 0.85 1.04 0.75 1.04 0.72 1.11 0.65 1.14 0.62 1.14 0.56 1.2 0.52 1.2 0.49 1.17 0.46 1.24 0.39 1.24 0.39 1.27 0.33 1.23 0.33 1.27 0.26 1.27 0.26 1.24 0.23 1.27 0.2 1.27 0.16 1.27 0.13 1.24 0.1 1.24 -13.9 1.01 -0.07 -0.94 -0.09 -0.94 -0.13 -0.94 -0.13 -0.98 -0.17 -0.94 -0.19 -0.94 -0.2 -0.94 -0.23 -0.91 -0.26 -0.94 -0.26 -0.88 -0.3 -0.85 -0.32 -0.85 -0.33 -0.81 -0.33 -0.75 -0.33 -0.72 -0.36 -0.68 -0.36 -0.62 -0.39 -0.58 -0.36 -0.49 -0.36 -0.46 -0.33 -0.39 -0.32 -0.33 -0.33 -0.29 -0.3 -0.2 -0.26 -0.2 -0.26 -0.13 -0.2 -0.1 -0.19 -0.06 -0.23 -0.03 -0.23 -0.03 -0.26 0 -0.3 0.03 0 0 0 -0zm-14.22 35.83l-13.93 -0.3 0 0 0.06 -1.72 0.13 -1.72 0.13 -1.79 0.22 -1.82 0.23 -1.82 0.29 -1.86 0.36 -1.85 0.36 -1.89 0.43 -1.89 0.49 -1.89 0.49 -1.89 0.55 -1.85 0.59 -1.89 0.65 -1.82 0.65 -1.82 0.71 -1.79 0.78 -1.76 0.81 -1.72 0.85 -1.66 0.91 -1.63 0.98 -1.59 1.01 -1.53 1.07 -1.46 1.17 -1.4 1.24 -1.33 1.3 -1.24 1.43 -1.14 1.5 -1.04 1.66 -0.91 1.79 -0.75 1.85 -0.56 1.95 -0.36 1.5 13.87 -0.29 0.03 -0.33 0.09 -0.36 0.17 -0.45 0.26 -0.52 0.33 -0.56 0.45 -0.62 0.59 -0.62 0.69 -0.65 0.81 -0.68 0.91 -0.69 1.01 -0.65 1.11 -0.69 1.17 -0.62 1.27 -0.65 1.3 -0.59 1.4 -0.59 1.43 -0.55 1.5 -0.52 1.53 -0.49 1.53 -0.45 1.59 -0.46 1.59 -0.39 1.59 -0.33 1.59 -0.33 1.59 -0.29 1.56 -0.26 1.56 -0.2 1.53 -0.16 1.5 -0.13 1.43 -0.1 1.37 -0.03 1.33 0 0 0 0.01zm8.62 31.5l-5.27 12.85 0 0 -1.59 -0.72 -1.53 -0.88 -1.43 -0.98 -1.33 -1.07 -1.24 -1.17 -1.11 -1.24 -1.01 -1.3 -0.94 -1.33 -0.85 -1.37 -0.75 -1.43 -0.72 -1.43 -0.62 -1.5 -0.59 -1.46 -0.49 -1.53 -0.49 -1.53 -0.39 -1.53 -0.36 -1.56 -0.36 -1.56 -0.26 -1.56 -0.26 -1.59 -0.22 -1.56 -0.17 -1.56 -0.16 -1.56 -0.13 -1.56 -0.1 -1.53 -0.09 -1.53 -0.07 -1.5 -0.03 -1.46 0 -1.46 -0.03 -1.43 0.03 -1.37 0 -1.37 13.93 0.29 -0.03 1.2 0 1.27 0 1.27 0.03 1.3 0.03 1.3 0.03 1.33 0.1 1.3 0.06 1.33 0.13 1.33 0.13 1.3 0.16 1.33 0.16 1.3 0.2 1.27 0.23 1.24 0.26 1.2 0.29 1.2 0.29 1.14 0.33 1.07 0.36 1.04 0.36 1.01 0.39 0.91 0.43 0.88 0.46 0.78 0.42 0.75 0.46 0.65 0.45 0.59 0.49 0.49 0.46 0.45 0.45 0.39 0.49 0.32 0.49 0.26 0.52 0.26 0 0 0 0zm48.72 -18.55l-11.72 7.55 10.19 1.66 -1.24 0.98 -1.33 1.04 -1.33 1.01 -1.4 1.07 -1.47 1.07 -1.46 1.07 -1.53 1.07 -1.56 1.07 -1.59 1.11 -1.63 1.07 -1.63 1.04 -1.63 1.07 -1.69 1.01 -1.69 1.01 -1.69 0.98 -1.69 0.94 -1.72 0.91 -1.72 0.85 -1.69 0.81 -1.73 0.75 -1.72 0.72 -1.69 0.65 -1.72 0.55 -1.72 0.52 -1.69 0.39 -1.72 0.33 -1.76 0.23 -1.76 0.09 -1.79 -0.03 -1.79 -0.2 -1.82 -0.39 -1.82 -0.62 5.27 -12.85 0.22 0.06 0.33 0.07 0.49 0.03 0.62 0.03 0.75 -0.03 0.85 -0.13 0.98 -0.2 1.07 -0.26 1.14 -0.33 1.24 -0.39 1.27 -0.49 1.33 -0.56 1.37 -0.62 1.43 -0.65 1.46 -0.75 1.46 -0.75 1.46 -0.81 1.5 -0.88 1.53 -0.91 1.5 -0.91 1.5 -0.94 1.5 -0.98 1.5 -1.01 1.46 -0.98 1.43 -1.01 1.43 -1.01 1.4 -1.04 1.33 -0.98 1.33 -1.01 1.27 -0.94 1.2 -0.94 1.17 -0.94 10.19 1.69 0 0zm-10.19 -1.69c3,-2.38 7.39,-1.89 9.76,1.14 2.41,2.99 1.89,7.39 -1.11,9.76l-8.66 -10.9zm3.58 17.15l-5.11 -7.91 11.72 -7.55 5.11 7.91 -0.81 8.56 -10.9 -1.01 0 0zm11.71 -7.55c2.08,3.22 1.14,7.55 -2.08,9.63 -3.22,2.08 -7.55,1.14 -9.63,-2.08l11.71 -7.55 0 0zm-64.4 37.56l-1.01 -13.86 0 0 1.85 -0.16 1.85 -0.23 1.89 -0.26 1.89 -0.3 1.92 -0.36 1.89 -0.39 1.92 -0.46 1.92 -0.49 1.92 -0.55 1.89 -0.56 1.92 -0.62 1.89 -0.69 1.89 -0.68 1.85 -0.75 1.85 -0.75 1.82 -0.81 1.79 -0.85 1.79 -0.88 1.76 -0.91 1.72 -0.94 1.69 -0.98 1.63 -0.98 1.63 -1.04 1.56 -1.04 1.53 -1.07 1.46 -1.07 1.43 -1.11 1.37 -1.14 1.33 -1.14 1.27 -1.17 1.2 -1.14 1.17 -1.2 10.09 9.57 -1.43 1.5 -1.5 1.43 -1.56 1.43 -1.59 1.4 -1.66 1.33 -1.72 1.33 -1.76 1.3 -1.79 1.24 -1.82 1.24 -1.89 1.17 -1.92 1.17 -1.92 1.11 -1.98 1.07 -2.02 1.04 -2.02 1.01 -2.08 0.98 -2.08 0.91 -2.11 0.88 -2.12 0.85 -2.15 0.81 -2.18 0.75 -2.15 0.72 -2.21 0.65 -2.18 0.62 -2.21 0.55 -2.21 0.52 -2.21 0.46 -2.21 0.42 -2.24 0.36 -2.21 0.3 -2.21 0.26 -2.21 0.2 0 0 -0.01 0zm-53.08 -43.96l13.89 -0.59 0 0 0.1 1.69 0.2 1.69 0.22 1.66 0.33 1.63 0.36 1.56 0.46 1.56 0.49 1.5 0.58 1.47 0.62 1.4 0.68 1.37 0.78 1.33 0.81 1.27 0.88 1.2 0.94 1.17 1.01 1.11 1.11 1.07 1.14 1.01 1.2 0.94 1.3 0.88 1.37 0.85 1.46 0.78 1.53 0.72 1.63 0.62 1.72 0.59 1.79 0.52 1.92 0.43 1.99 0.32 2.11 0.26 2.21 0.16 2.31 0.09 2.41 -0.03 2.5 -0.13 1.01 13.87 -3.06 0.16 -2.99 0.03 -2.93 -0.1 -2.83 -0.19 -2.77 -0.36 -2.67 -0.46 -2.6 -0.59 -2.5 -0.68 -2.41 -0.81 -2.34 -0.94 -2.25 -1.04 -2.15 -1.14 -2.05 -1.24 -1.92 -1.33 -1.85 -1.46 -1.76 -1.53 -1.63 -1.59 -1.56 -1.69 -1.43 -1.76 -1.33 -1.82 -1.2 -1.92 -1.14 -1.92 -1.01 -2.02 -0.91 -2.05 -0.81 -2.08 -0.72 -2.11 -0.62 -2.15 -0.49 -2.18 -0.43 -2.21 -0.33 -2.24 -0.26 -2.25 -0.13 -2.24 0 -0.03 0 0zm43.57 -66.29l6.28 12.4 0 0 -1.89 0.98 -1.85 1.04 -1.82 1.04 -1.79 1.14 -1.79 1.17 -1.72 1.24 -1.72 1.27 -1.69 1.3 -1.63 1.37 -1.59 1.43 -1.56 1.43 -1.5 1.5 -1.43 1.56 -1.4 1.59 -1.33 1.59 -1.27 1.66 -1.2 1.72 -1.14 1.72 -1.07 1.79 -0.98 1.82 -0.94 1.85 -0.85 1.92 -0.78 1.92 -0.69 1.98 -0.59 1.99 -0.55 2.05 -0.43 2.12 -0.36 2.11 -0.22 2.18 -0.17 2.21 -0.06 2.28 0.06 2.31 -13.89 0.59 -0.07 -2.93 0.07 -2.9 0.19 -2.83 0.33 -2.8 0.46 -2.77 0.55 -2.7 0.69 -2.63 0.78 -2.61 0.88 -2.54 0.98 -2.48 1.11 -2.41 1.17 -2.38 1.27 -2.31 1.33 -2.24 1.43 -2.15 1.5 -2.15 1.56 -2.05 1.63 -1.98 1.69 -1.95 1.76 -1.86 1.82 -1.82 1.85 -1.72 1.89 -1.69 1.95 -1.63 1.98 -1.56 2.02 -1.5 2.08 -1.46 2.08 -1.37 2.12 -1.3 2.15 -1.27 2.15 -1.2 2.18 -1.14 0 0.03 -0 0zm59.94 -3.65l-5.69 12.69 -0.03 0 -1.37 -0.62 -1.4 -0.56 -1.4 -0.49 -1.43 -0.46 -1.4 -0.39 -1.43 -0.36 -1.43 -0.33 -1.46 -0.26 -1.46 -0.23 -1.46 -0.16 -1.47 -0.13 -1.5 -0.07 -1.5 -0.03 -1.5 0 -1.5 0.03 -1.53 0.1 -1.5 0.16 -1.53 0.17 -1.53 0.22 -1.56 0.26 -1.53 0.32 -1.53 0.36 -1.56 0.39 -1.56 0.42 -1.56 0.49 -1.53 0.52 -1.56 0.56 -1.56 0.62 -1.56 0.65 -1.53 0.69 -1.56 0.72 -1.53 0.75 -6.28 -12.4 1.79 -0.91 1.82 -0.85 1.85 -0.81 1.82 -0.75 1.86 -0.71 1.85 -0.69 1.89 -0.62 1.85 -0.59 1.89 -0.52 1.89 -0.49 1.89 -0.43 1.92 -0.39 1.89 -0.33 1.89 -0.29 1.92 -0.23 1.92 -0.16 1.89 -0.13 1.92 -0.07 1.92 0 1.89 0.07 1.92 0.09 1.89 0.17 1.89 0.23 1.92 0.26 1.89 0.36 1.85 0.39 1.89 0.46 1.85 0.55 1.82 0.59 1.85 0.65 1.82 0.72 1.79 0.78 0 0 0 0zm16.76 44.26l0.1 -13.93 -7 7.65 -0.1 -1.07 -0.16 -1.07 -0.17 -1.04 -0.22 -1.04 -0.23 -1.04 -0.26 -1.04 -0.3 -1.01 -0.33 -1.01 -0.36 -1.01 -0.35 -0.94 -0.39 -0.94 -0.45 -0.94 -0.43 -0.94 -0.49 -0.88 -0.49 -0.88 -0.52 -0.85 -0.52 -0.84 -0.56 -0.78 -0.59 -0.78 -0.58 -0.75 -0.59 -0.71 -0.65 -0.69 -0.65 -0.65 -0.62 -0.62 -0.65 -0.59 -0.69 -0.56 -0.71 -0.55 -0.65 -0.46 -0.72 -0.46 -0.71 -0.42 -0.72 -0.39 -0.72 -0.33 5.69 -12.69 1.3 0.59 1.24 0.68 1.2 0.72 1.17 0.75 1.14 0.81 1.14 0.85 1.07 0.88 1.04 0.91 1.01 1.01 0.98 0.98 0.94 1.04 0.91 1.07 0.85 1.11 0.85 1.14 0.81 1.14 0.78 1.2 0.72 1.2 0.71 1.24 0.65 1.27 0.62 1.3 0.58 1.3 0.59 1.33 0.52 1.33 0.46 1.37 0.46 1.37 0.39 1.4 0.36 1.43 0.33 1.4 0.29 1.46 0.26 1.43 0.2 1.46 0.16 1.46 -6.96 7.61 0 0zm6.96 -7.61c0.36,3.81 -2.44,7.22 -6.28,7.58 -3.81,0.36 -7.22,-2.44 -7.58,-6.25l13.86 -1.33zm-42.67 -6.54l35.8 0.23 -0.1 13.93 -35.8 -0.26 -6.9 -6.44 7 -7.45 0 0zm-0.1 13.9c-3.84,-0.03 -6.93,-3.16 -6.9,-7 0.03,-3.84 3.16,-6.93 7,-6.9l-0.09 13.9 -0 0zm-123.11 -18.19l-13.67 2.6 0 0 -0.1 -0.52 -0.1 -0.46 -0.13 -0.45 -0.09 -0.43 -0.13 -0.42 -0.16 -0.43 -0.13 -0.35 -0.13 -0.36 -0.13 -0.3 -0.16 -0.32 -0.17 -0.3 -0.13 -0.23 -0.13 -0.22 -0.16 -0.23 -0.13 -0.2 -0.16 -0.2 -0.13 -0.13 -0.09 -0.13 -0.13 -0.13 -0.1 -0.1 -0.16 -0.09 -0.07 -0.07 -0.1 -0.06 -0.13 -0.07 -0.06 -0.03 -0.1 -0.03 -0.06 -0.03 -0.1 -0.03 -0.1 -0.04 -0.13 -0.03 -0.13 0 -0.13 -0.03 1.07 -13.86 0.85 0.1 0.84 0.13 0.81 0.16 0.81 0.2 0.78 0.26 0.81 0.33 0.78 0.32 0.72 0.39 0.71 0.39 0.69 0.46 0.69 0.49 0.62 0.49 0.62 0.55 0.59 0.56 0.55 0.59 0.52 0.62 0.49 0.62 0.45 0.65 0.46 0.65 0.42 0.65 0.39 0.72 0.36 0.71 0.35 0.69 0.33 0.75 0.3 0.75 0.26 0.75 0.26 0.75 0.23 0.75 0.23 0.81 0.22 0.78 0.17 0.81 0.16 0.81 0 0 0 -0.01zm-3.16 30.92l-13.24 -4.36 0 0 0.29 -0.88 0.29 -0.91 0.26 -0.88 0.23 -0.88 0.23 -0.88 0.23 -0.88 0.2 -0.84 0.19 -0.88 0.2 -0.85 0.16 -0.81 0.16 -0.85 0.13 -0.81 0.13 -0.81 0.09 -0.78 0.1 -0.78 0.1 -0.78 0.06 -0.78 0.07 -0.75 0.03 -0.72 0.03 -0.71 0.03 -0.75 0 -0.68 0 -0.65 0 -0.68 -0.03 -0.65 -0.03 -0.65 -0.03 -0.59 -0.07 -0.62 -0.06 -0.58 -0.07 -0.56 -0.1 -0.56 -0.09 -0.52 13.67 -2.6 0.16 0.81 0.13 0.85 0.1 0.88 0.09 0.85 0.1 0.88 0.07 0.88 0.03 0.91 0.03 0.88 0.03 0.91 0 0.94 -0.03 0.91 -0.03 0.94 -0.03 0.91 -0.07 0.98 -0.07 0.98 -0.09 0.98 -0.1 0.98 -0.13 0.98 -0.13 0.98 -0.16 1.01 -0.17 1.01 -0.19 1.01 -0.2 1.04 -0.23 1.01 -0.23 1.04 -0.26 1.04 -0.26 1.04 -0.26 1.04 -0.3 1.07 -0.32 1.04 -0.33 1.07 -0.33 1.07 0 0 0 -0zm-16.24 28.77l-10.22 -9.44 0 0 0.49 -0.52 0.45 -0.56 0.46 -0.52 0.49 -0.59 0.45 -0.59 0.49 -0.62 0.46 -0.62 0.46 -0.62 0.45 -0.65 0.46 -0.69 0.45 -0.69 0.46 -0.68 0.42 -0.72 0.46 -0.72 0.42 -0.75 0.46 -0.72 0.43 -0.78 0.42 -0.78 0.39 -0.78 0.43 -0.81 0.39 -0.78 0.39 -0.81 0.39 -0.85 0.36 -0.81 0.39 -0.85 0.36 -0.88 0.36 -0.88 0.33 -0.88 0.33 -0.88 0.32 -0.88 0.33 -0.91 0.3 -0.91 13.24 4.36 -0.36 1.04 -0.39 1.07 -0.39 1.07 -0.39 1.04 -0.39 1.04 -0.43 1.01 -0.42 1.01 -0.43 1.01 -0.45 1.01 -0.46 0.98 -0.46 0.98 -0.49 0.98 -0.49 0.94 -0.49 0.94 -0.52 0.91 -0.49 0.91 -0.52 0.91 -0.52 0.88 -0.56 0.88 -0.52 0.88 -0.55 0.85 -0.59 0.85 -0.56 0.81 -0.55 0.81 -0.59 0.78 -0.59 0.78 -0.62 0.78 -0.59 0.75 -0.58 0.71 -0.62 0.75 -0.65 0.72 -0.62 0.68 0 0 0 0zm-23.66 10.77l2.63 -13.67 0 0 0.13 0.03 0.13 0 0.17 0 0.19 0.03 0.17 -0.03 0.19 0 0.23 -0.03 0.23 -0.03 0.26 -0.06 0.29 -0.07 0.26 -0.1 0.29 -0.09 0.33 -0.1 0.33 -0.16 0.36 -0.17 0.35 -0.16 0.36 -0.19 0.43 -0.23 0.36 -0.23 0.42 -0.26 0.43 -0.3 0.42 -0.29 0.43 -0.33 0.42 -0.33 0.46 -0.39 0.45 -0.39 0.43 -0.36 0.45 -0.46 0.49 -0.42 0.43 -0.46 0.49 -0.49 0.45 -0.49 10.22 9.44 -0.62 0.65 -0.62 0.65 -0.65 0.65 -0.65 0.62 -0.62 0.59 -0.69 0.59 -0.65 0.58 -0.65 0.52 -0.69 0.52 -0.69 0.52 -0.71 0.49 -0.69 0.49 -0.69 0.42 -0.75 0.46 -0.69 0.39 -0.75 0.39 -0.75 0.39 -0.72 0.33 -0.75 0.29 -0.78 0.3 -0.78 0.29 -0.78 0.23 -0.78 0.19 -0.85 0.2 -0.78 0.13 -0.81 0.1 -0.85 0.06 -0.88 0.03 -0.81 0 -0.85 -0.06 -0.88 -0.1 -0.85 -0.13 0 0 0 0zm0 0c-3.74,-0.72 -6.25,-4.36 -5.5,-8.14 0.72,-3.77 4.36,-6.25 8.13,-5.53l-2.63 13.67 0 0zm-14.94 -19.17l13.77 -1.95 0 0 0.1 0.52 0.09 0.52 0.1 0.49 0.1 0.49 0.09 0.42 0.13 0.46 0.13 0.42 0.13 0.39 0.13 0.35 0.13 0.36 0.16 0.33 0.13 0.33 0.17 0.26 0.13 0.26 0.13 0.23 0.16 0.23 0.13 0.2 0.13 0.16 0.16 0.2 0.1 0.13 0.13 0.09 0.13 0.1 0.1 0.1 0.1 0.09 0.09 0.04 0.1 0.06 0.1 0.07 0.09 0.03 0.1 0.03 0.1 0.06 0.09 0 0.13 0.04 -2.64 13.67 -0.81 -0.17 -0.85 -0.26 -0.78 -0.26 -0.78 -0.3 -0.78 -0.35 -0.71 -0.39 -0.72 -0.42 -0.72 -0.46 -0.65 -0.49 -0.65 -0.52 -0.58 -0.52 -0.59 -0.59 -0.56 -0.62 -0.52 -0.59 -0.49 -0.62 -0.45 -0.65 -0.43 -0.65 -0.42 -0.69 -0.39 -0.72 -0.36 -0.69 -0.32 -0.72 -0.33 -0.71 -0.26 -0.75 -0.3 -0.71 -0.26 -0.78 -0.23 -0.75 -0.19 -0.78 -0.23 -0.81 -0.16 -0.78 -0.17 -0.81 -0.13 -0.81 -0.13 -0.81 0 0 0 0zm3.71 -29.84l13.18 4.46 0 0 -0.26 0.85 -0.3 0.88 -0.26 0.85 -0.23 0.81 -0.23 0.85 -0.22 0.85 -0.23 0.81 -0.2 0.85 -0.16 0.78 -0.2 0.81 -0.13 0.81 -0.16 0.78 -0.13 0.78 -0.13 0.78 -0.1 0.78 -0.1 0.72 -0.09 0.78 -0.07 0.71 -0.07 0.72 -0.06 0.72 -0.03 0.72 -0.03 0.69 -0.03 0.68 0 0.65 0 0.65 0.03 0.65 0 0.59 0.03 0.62 0.06 0.59 0.03 0.58 0.07 0.59 0.07 0.52 -13.77 1.95 -0.1 -0.81 -0.09 -0.85 -0.07 -0.81 -0.07 -0.85 -0.06 -0.85 -0.03 -0.88 0 -0.88 -0.03 -0.88 0.03 -0.88 0.03 -0.88 0.03 -0.91 0.03 -0.91 0.07 -0.91 0.09 -0.94 0.1 -0.91 0.1 -0.94 0.13 -0.94 0.13 -0.94 0.16 -0.94 0.16 -0.98 0.2 -0.98 0.2 -0.98 0.19 -0.98 0.23 -0.98 0.23 -1.01 0.26 -0.98 0.26 -1.01 0.26 -0.98 0.33 -1.04 0.29 -1.01 0.33 -0.98 0.33 -1.04 0 0 -0 0zm0 0c1.24,-3.65 5.17,-5.6 8.82,-4.36 3.65,1.24 5.6,5.17 4.36,8.82l-13.18 -4.46 0 0zm15.26 -27.3l10.41 9.24 0 0 -0.42 0.49 -0.46 0.55 -0.46 0.52 -0.42 0.56 -0.46 0.59 -0.42 0.58 -0.43 0.59 -0.45 0.62 -0.43 0.62 -0.42 0.62 -0.43 0.68 -0.45 0.65 -0.39 0.68 -0.42 0.69 -0.43 0.69 -0.39 0.71 -0.42 0.72 -0.39 0.75 -0.39 0.75 -0.36 0.75 -0.39 0.75 -0.36 0.78 -0.39 0.78 -0.36 0.81 -0.32 0.78 -0.36 0.81 -0.33 0.81 -0.33 0.81 -0.33 0.84 -0.32 0.85 -0.3 0.85 -0.29 0.85 -13.18 -4.46 0.36 -1.01 0.36 -1.01 0.36 -0.98 0.36 -0.98 0.39 -0.98 0.42 -0.98 0.39 -0.94 0.42 -0.94 0.43 -0.94 0.42 -0.91 0.43 -0.94 0.45 -0.91 0.46 -0.88 0.49 -0.91 0.45 -0.88 0.49 -0.85 0.49 -0.88 0.49 -0.85 0.52 -0.81 0.49 -0.85 0.52 -0.78 0.52 -0.81 0.56 -0.78 0.52 -0.78 0.55 -0.75 0.56 -0.75 0.56 -0.75 0.55 -0.72 0.56 -0.71 0.58 -0.69 0.56 -0.69 0.59 -0.69 0 0 0 0zm22.55 -11.81l-1.07 13.86 0 0 -0.16 0 -0.16 0 -0.2 0 -0.23 0.03 -0.19 0 -0.2 0.07 -0.29 0.06 -0.26 0.03 -0.26 0.1 -0.33 0.1 -0.29 0.13 -0.29 0.13 -0.36 0.13 -0.33 0.16 -0.39 0.2 -0.36 0.23 -0.36 0.19 -0.39 0.26 -0.39 0.26 -0.42 0.29 -0.39 0.3 -0.42 0.32 -0.43 0.33 -0.45 0.39 -0.43 0.36 -0.42 0.39 -0.43 0.42 -0.45 0.43 -0.46 0.45 -0.42 0.46 -0.46 0.49 -0.46 0.49 -10.41 -9.24 0.62 -0.65 0.59 -0.65 0.59 -0.62 0.62 -0.62 0.62 -0.59 0.62 -0.59 0.62 -0.59 0.65 -0.55 0.65 -0.52 0.62 -0.52 0.65 -0.49 0.69 -0.49 0.65 -0.49 0.69 -0.45 0.69 -0.43 0.71 -0.42 0.69 -0.39 0.69 -0.36 0.72 -0.36 0.75 -0.33 0.72 -0.29 0.78 -0.3 0.72 -0.26 0.78 -0.23 0.81 -0.19 0.75 -0.17 0.81 -0.13 0.81 -0.13 0.78 -0.06 0.84 -0.04 0.85 0 0.81 0.07 0 0 0 0zm28.54 -6.09l-0.26 4.43 -13.9 -0.88 0.3 -4.43 6.93 -6.51 6.93 7.39zm-13.86 -0.88c0.23,-3.81 3.55,-6.74 7.35,-6.51 3.84,0.26 6.77,3.55 6.51,7.39l-13.87 -0.88 0 0zm14.32 7.42l-7.39 0 0 -13.93 7.39 0 6.8 5.41 -6.8 8.52zm0 -13.93c3.84,0 6.96,3.13 6.96,6.96 0,3.84 -3.12,6.96 -6.96,6.96l0 -13.93zm17.28 113.15l-24.05 -104.63 13.57 -3.13 24.05 104.66 -6.8 8.5 -6.77 -5.41zm13.57 -3.09c0.85,3.74 -1.5,7.48 -5.24,8.33 -3.74,0.85 -7.49,-1.5 -8.33,-5.24l13.57 -3.09 0 0zm-55.26 -5.4l48.46 0 0 13.9 -48.46 0 -6.87 -8.07 6.87 -5.83zm0 13.9c-3.84,0 -6.96,-3.13 -6.96,-6.93 0,-3.84 3.12,-6.96 6.96,-6.96l0 13.9zm10.93 -30.66l-4.07 24.83 -13.73 -2.24 4.07 -24.83 2.05 -3.91 11.68 6.15 0 0zm-13.73 -2.24c0.62,-3.81 4.2,-6.38 8,-5.76 3.78,0.62 6.35,4.2 5.73,8l-13.73 -2.24 0 0zm-45.33 32.64l0.81 -13.9 0 0 1.5 0.06 1.5 0 1.46 -0.06 1.5 -0.13 1.5 -0.16 1.46 -0.23 1.5 -0.3 1.5 -0.36 1.5 -0.39 1.5 -0.45 1.5 -0.49 1.5 -0.55 1.5 -0.62 1.5 -0.65 1.5 -0.68 1.47 -0.75 1.5 -0.78 1.46 -0.85 1.46 -0.88 1.5 -0.91 1.43 -0.94 1.46 -0.98 1.43 -1.04 1.43 -1.04 1.43 -1.11 1.4 -1.11 1.4 -1.14 1.4 -1.17 1.37 -1.2 1.37 -1.24 1.33 -1.24 1.33 -1.27 9.67 10.02 -1.46 1.4 -1.5 1.37 -1.5 1.37 -1.53 1.33 -1.56 1.3 -1.56 1.3 -1.59 1.24 -1.63 1.27 -1.63 1.2 -1.66 1.17 -1.66 1.14 -1.72 1.11 -1.69 1.07 -1.76 1.04 -1.76 0.98 -1.79 0.94 -1.79 0.91 -1.82 0.85 -1.85 0.81 -1.85 0.75 -1.89 0.69 -1.89 0.65 -1.92 0.56 -1.95 0.52 -1.95 0.46 -1.98 0.39 -1.98 0.29 -2.02 0.26 -2.02 0.16 -2.05 0.07 -2.02 0 -2.05 -0.07 0 0 0 0zm-20.76 -70.3l12.2 6.7 0 0 -1.72 3.32 -1.56 3.19 -1.33 3.09 -1.14 2.96 -0.98 2.83 -0.78 2.7 -0.62 2.57 -0.45 2.44 -0.33 2.31 -0.16 2.18 -0.03 2.05 0.09 1.92 0.2 1.82 0.29 1.66 0.43 1.56 0.49 1.46 0.55 1.33 0.65 1.24 0.72 1.17 0.78 1.04 0.85 1.01 0.91 0.88 0.98 0.85 1.04 0.75 1.11 0.69 1.17 0.62 1.24 0.56 1.3 0.45 1.33 0.39 1.43 0.29 1.43 0.23 1.5 0.13 -0.81 13.9 -2.35 -0.23 -2.31 -0.33 -2.24 -0.49 -2.25 -0.65 -2.15 -0.78 -2.15 -0.91 -2.05 -1.07 -1.96 -1.24 -1.89 -1.37 -1.79 -1.53 -1.69 -1.66 -1.56 -1.79 -1.43 -1.95 -1.27 -2.08 -1.14 -2.21 -0.98 -2.31 -0.85 -2.44 -0.62 -2.54 -0.49 -2.6 -0.33 -2.73 -0.13 -2.83 0.07 -2.89 0.23 -3 0.39 -3.06 0.62 -3.15 0.78 -3.22 0.94 -3.32 1.17 -3.42 1.37 -3.48 1.53 -3.58 1.79 -3.65 1.95 -3.78 0 0 0 -0zm51.09 -44.2l5.24 12.89 0 0 -1.56 0.65 -1.56 0.72 -1.59 0.72 -1.56 0.78 -1.59 0.85 -1.59 0.85 -1.59 0.91 -1.59 0.94 -1.56 0.98 -1.56 1.01 -1.56 1.04 -1.53 1.07 -1.53 1.14 -1.53 1.14 -1.5 1.17 -1.47 1.24 -1.46 1.24 -1.4 1.27 -1.4 1.3 -1.4 1.3 -1.33 1.37 -1.3 1.37 -1.27 1.4 -1.24 1.43 -1.2 1.46 -1.17 1.46 -1.11 1.5 -1.11 1.5 -1.01 1.53 -1.01 1.53 -0.91 1.56 -0.91 1.59 -12.2 -6.7 1.07 -1.89 1.14 -1.89 1.2 -1.85 1.2 -1.82 1.3 -1.79 1.33 -1.76 1.33 -1.72 1.43 -1.69 1.43 -1.69 1.5 -1.63 1.5 -1.59 1.56 -1.56 1.56 -1.53 1.63 -1.5 1.63 -1.46 1.66 -1.4 1.69 -1.4 1.69 -1.33 1.72 -1.3 1.76 -1.27 1.76 -1.24 1.76 -1.2 1.79 -1.17 1.82 -1.11 1.82 -1.07 1.79 -1.04 1.82 -0.98 1.85 -0.94 1.82 -0.91 1.82 -0.85 1.85 -0.85 1.82 -0.75 0 0 0 0zm27.6 7.13l13.89 0.88 -11.22 5.04 -0.33 -0.23 -0.36 -0.22 -0.46 -0.26 -0.45 -0.23 -0.56 -0.26 -0.59 -0.23 -0.62 -0.19 -0.65 -0.2 -0.69 -0.2 -0.75 -0.16 -0.78 -0.13 -0.78 -0.13 -0.85 -0.1 -0.85 -0.09 -0.88 -0.07 -0.88 -0.03 -0.91 0 -0.94 0 -0.91 0.03 -0.94 0.07 -0.94 0.09 -0.94 0.1 -0.94 0.13 -0.94 0.13 -0.91 0.2 -0.94 0.2 -0.91 0.22 -0.91 0.23 -0.88 0.26 -0.85 0.3 -0.85 0.29 -0.85 0.33 -5.24 -12.89 1.2 -0.49 1.2 -0.42 1.24 -0.39 1.27 -0.39 1.24 -0.33 1.24 -0.29 1.27 -0.26 1.27 -0.26 1.3 -0.2 1.27 -0.2 1.3 -0.13 1.27 -0.1 1.3 -0.09 1.27 -0.03 1.27 -0.04 1.27 0.04 1.27 0.03 1.27 0.09 1.24 0.13 1.24 0.13 1.24 0.19 1.2 0.23 1.2 0.26 1.2 0.33 1.17 0.36 1.14 0.39 1.14 0.46 1.11 0.49 1.11 0.56 1.04 0.58 1.04 0.69 1.04 0.75 -11.23 5.05 0 0zm11.22 -5.04c3.03,2.34 3.58,6.7 1.2,9.76 -2.34,3.02 -6.7,3.58 -9.76,1.2l8.56 -10.96 0 0zm-124.57 8.13l-46.64 0 0 -13.93 46.64 0 6.83 8.23 -6.83 5.7zm0 -13.93c3.84,0 6.93,3.13 6.93,6.96 0,3.84 -3.09,6.96 -6.93,6.96l0 -13.93zm-11.04 28.15l4.17 -22.45 13.7 2.54 -4.17 22.45 -2.67 4.3 -11.04 -6.83 0 -0zm13.7 2.54c-0.72,3.81 -4.36,6.28 -8.14,5.6 -3.78,-0.72 -6.25,-4.36 -5.57,-8.14l13.7 2.54zm27.27 -18.29l-29.94 22.58 -8.37 -11.09 29.91 -22.59 11.16 5.53 -2.77 5.57 0 0zm-8.4 -11.1c3.09,-2.31 7.45,-1.72 9.76,1.33 2.31,3.09 1.69,7.45 -1.37,9.76l-8.4 -11.1 0 0zm-2.77 58.41l0 -52.88 13.93 0 0 52.88 -6.38 6.96 -7.55 -6.96zm13.93 0c0,3.84 -3.12,6.96 -6.96,6.96 -3.84,0 -6.96,-3.12 -6.96,-6.96l13.93 0zm-43.67 -3.84l36.13 -3.09 1.17 13.89 -36.12 3.06 -7.42 -8.23 6.25 -5.63zm1.17 13.86c-3.84,0.33 -7.19,-2.54 -7.52,-6.35 -0.33,-3.84 2.51,-7.22 6.35,-7.52l1.17 13.86zm-20.37 61.41l12.95 -69.64 13.67 2.57 -12.95 69.61 -13.67 0 0 -2.54 0 0zm13.67 2.54c-0.69,3.78 -4.33,6.28 -8.1,5.57 -3.78,-0.69 -6.28,-4.33 -5.57,-8.11l13.67 2.54 0 0zm-23.3 -127.99l23.3 125.45 -13.67 2.54 -23.3 -125.46 6.83 -8.23 6.83 5.7 0 0zm-13.67 2.54c-0.72,-3.77 1.79,-7.42 5.57,-8.1 3.78,-0.72 7.42,1.79 8.1,5.57l-13.67 2.54 0 0zm-8.62 5.7l-49.5 0 0 -13.93 49.5 0 6.83 8.3 -6.83 5.63zm0 -13.93c3.84,0 6.96,3.13 6.96,6.96 0,3.84 -3.13,6.96 -6.96,6.96l0 -13.93zm-31.57 131.09l24.73 -125.46 13.67 2.67 -24.77 125.46 -13.63 0 0 -2.67zm13.63 2.67c-0.75,3.78 -4.39,6.25 -8.17,5.5 -3.77,-0.75 -6.22,-4.43 -5.46,-8.17l13.63 2.67zm-24.73 -128.13l24.73 125.46 -13.63 2.67 -24.77 -125.46 6.83 -8.3 6.83 5.63 0 0zm-13.67 2.67c-0.75,-3.74 1.72,-7.42 5.47,-8.17 3.78,-0.72 7.45,1.72 8.2,5.5l-13.67 2.67z"/>
  <path id="_1_0" class="fil3" d="M734.21 159.59c9.6,15.62 28.41,12.79 56.46,-8.49l4.91 8.04c-13.02,14.13 -42.76,27.5 -66.52,26.33 -17.21,-0.81 -38.01,-9.24 -38.63,-39.51 -0.45,-22.52 16.57,-44.91 37.72,-56.04 19.72,-10.35 49.53,-15.62 66.78,2.7 11.36,12.07 5.24,34.5 -6.7,45.98 -13.96,13.37 -30.66,20.02 -54.02,20.99l0 -0zm24.83 -68.37c5.43,1.2 8.26,6.12 8.78,12.79 0.49,6.25 -1.14,13.9 -4.78,21.48 -3.41,7.13 -8.07,13.11 -12.89,17.18 -4.69,3.97 -9.73,6.35 -14.22,6.22 -4.62,-0.13 -7.97,-2.86 -9.7,-7.39 -1.82,-4.82 -1.79,-11.81 0.75,-19.89 2.73,-8.72 7.78,-16.79 13.7,-22.55 6.12,-5.93 12.92,-9.05 18.35,-7.84l0 -0zm-124.55 -83.99l50.9 0 -25.45 194.15 -25.45 -194.15 0 0zm-35.21 108.5c-0.85,-11.49 -5.96,-25.39 -16.04,-24.31 -12.07,1.3 -20.11,26.72 -20.44,42.6 -0.3,13.57 1.27,33.32 12.95,38.11 10.42,4.23 32.9,-11.22 45.5,-21.22l5.11 7.91c-13.5,14.32 -37.49,25.26 -59.03,26.85 -30.4,2.21 -44.72,-16.01 -45.66,-37.33 -1.24,-28.21 18.16,-48.88 39.77,-59.81 17.9,-9.02 37.04,-11.17 53.96,-3.48 10.77,4.85 18.35,17.41 19.66,30.95l-35.77 -0.26zm-140.2 -21.97c5.31,0.43 8.85,4.95 10.19,12.04 1.37,7.16 0.52,16.89 -2.96,27.43 -3.45,10.61 -8.85,19.88 -14.71,26.23 -5.8,6.28 -12.01,9.67 -17.22,8.66 -5.14,-0.98 -8.33,-6.02 -9.37,-13.31 -1.04,-7.19 0.03,-16.63 3.42,-26.62 3.35,-9.96 8.39,-18.75 13.86,-24.93 5.53,-6.22 11.52,-9.93 16.79,-9.5zm21.91 -9.05l0.26 -4.39 7.39 0 24.05 104.66 -48.46 0 4.07 -24.86c-14.74,14.25 -32.9,25.74 -51.81,24.57 -20.57,-1.24 -35.99,-21.71 -15.04,-59.98 10.22,-18.71 29.48,-33.75 47.61,-41.1 10.64,-4.33 24.99,-4.23 31.93,1.11l0 0zm-166.95 -4.3l46.64 0 -4.2 22.46 29.94 -22.59 0 52.88 -36.13 3.09 -12.95 69.61 -23.3 -125.46 -0 0zm-64.96 0l49.5 0 -24.77 125.46 -24.73 -125.46z"/>
  <polygon class="fil4" points="269.32,41.76 252.33,21.25 273.65,31.5 282.11,4.43 282.11,34.53 305.02,36.29 283.41,44.78 287.42,72.64 275.57,50.38 256.66,65.61 "/>
  <path class="fil5" d="M153.3 267.12c6.31,0 11.98,2.73 15.88,7.09 214.89,-39.51 438.2,-69.78 566.62,-53.54 8.65,1.07 10.9,7.29 0,5.89 -106.06,-13.67 -337.51,24.7 -561.38,65.31 -1.63,10.19 -10.45,18 -21.12,18 -11.78,0 -21.38,-9.57 -21.38,-21.38 0,-11.81 9.6,-21.38 21.38,-21.38l0 0z"/>
  <path class="fil6" d="M810.75 28.76c3.87,0 7.59,0.96 11.14,2.91 3.56,1.93 6.36,4.71 8.39,8.32 2.04,3.61 3.05,7.39 3.05,11.35 0,3.93 -1,7.68 -2.99,11.25 -2,3.56 -4.78,6.34 -8.34,8.34 -3.57,1.99 -7.32,2.99 -11.25,2.99 -3.94,0 -7.68,-1 -11.25,-2.99 -3.56,-2 -6.34,-4.78 -8.34,-8.34 -1.99,-3.57 -2.99,-7.32 -2.99,-11.25 0,-3.96 1.02,-7.74 3.05,-11.35 2.03,-3.61 4.83,-6.39 8.39,-8.32 3.56,-1.94 7.27,-2.91 11.14,-2.91zm0.02 4.47c-3.11,0 -6.09,0.78 -8.94,2.33 -2.85,1.55 -5.09,3.77 -6.73,6.68 -1.64,2.9 -2.46,5.94 -2.46,9.11 0,3.16 0.8,6.18 2.41,9.04 1.6,2.87 3.83,5.1 6.7,6.71 2.87,1.61 5.88,2.41 9.03,2.41 3.16,0 6.17,-0.8 9.03,-2.41 2.87,-1.61 5.1,-3.85 6.71,-6.71 1.61,-2.86 2.41,-5.88 2.41,-9.04 0,-3.17 -0.82,-6.22 -2.46,-9.11 -1.64,-2.91 -3.89,-5.13 -6.74,-6.68 -2.87,-1.55 -5.85,-2.33 -8.94,-2.33zm-10.22 30.19l0 -23.91 4.85 0c4.55,0 7.11,0.02 7.65,0.06 1.61,0.13 2.86,0.45 3.75,0.96 0.89,0.49 1.63,1.26 2.23,2.3 0.59,1.03 0.9,2.17 0.9,3.42 0,1.73 -0.56,3.2 -1.69,4.43 -1.13,1.22 -2.71,1.98 -4.74,2.28 0.72,0.27 1.29,0.57 1.68,0.9 0.39,0.32 0.93,0.93 1.62,1.83 0.18,0.24 0.76,1.2 1.77,2.92l2.81 4.82 -6.04 0 -1.98 -3.89c-1.34,-2.61 -2.44,-4.26 -3.32,-4.93 -0.89,-0.68 -1.99,-1.02 -3.34,-1.02l-1.26 0 0 9.84 -4.89 0zm4.89 -13.65l1.96 0c2.8,0 4.54,-0.11 5.21,-0.32 0.67,-0.21 1.2,-0.58 1.6,-1.11 0.39,-0.54 0.58,-1.14 0.58,-1.82 0,-0.65 -0.19,-1.25 -0.57,-1.76 -0.38,-0.52 -0.93,-0.89 -1.63,-1.11 -0.7,-0.22 -2.44,-0.33 -5.19,-0.33l-1.96 0 0 6.46z"/>
 </g>
</svg>
